<?xml version="1.0" encoding="UTF-8"?>
<svg version="1.1" xmlns="http://www.w3.org/2000/svg" width="500" height="500">
<path d="M0 0 C21.78 0 43.56 0 66 0 C66 21.12 66 42.24 66 64 C87.12 64 108.24 64 130 64 C130 85.78 130 107.56 130 130 C108.88 130 87.76 130 66 130 C66 151.12 66 172.24 66 194 C44.22 194 22.44 194 0 194 C0 172.88 0 151.76 0 130 C-21.12 130 -42.24 130 -64 130 C-64 108.22 -64 86.44 -64 64 C-42.88 64 -21.76 64 0 64 C0 42.88 0 21.76 0 0 Z " fill="#E20613" transform="translate(217,153)"/>
<path d="M0 0 C1.45848512 0.63027271 2.91822287 1.25765123 4.37890625 1.8828125 C22.58381159 9.72692673 22.58381159 9.72692673 28 14 C28 14.66 28 15.32 28 16 C28.54140625 16.09410156 29.0828125 16.18820313 29.640625 16.28515625 C32.69771088 17.21139253 35.05769005 18.7245356 37.75 20.4375 C38.73484375 21.05496094 39.7196875 21.67242187 40.734375 22.30859375 C41.48203125 22.86675781 42.2296875 23.42492187 43 24 C43 24.66 43 25.32 43 26 C43.61875 26.309375 44.2375 26.61875 44.875 26.9375 C46.25 27.625 47.625 28.3125 49 29 C49 29.66 49 30.32 49 31 C49.804375 31.3403125 49.804375 31.3403125 50.625 31.6875 C53.82460161 33.45570089 56.29037223 35.53670203 59 38 C59 38.66 59 39.32 59 40 C59.99 40.33 60.98 40.66 62 41 C62 41.66 62 42.32 62 43 C62.99 43.33 63.98 43.66 65 44 C66.60546875 45.55859375 66.60546875 45.55859375 68.1875 47.4375 C68.71730469 48.05496094 69.24710937 48.67242187 69.79296875 49.30859375 C71 51 71 51 71 53 C71.66 53 72.32 53 73 53 C77 58.41176471 77 58.41176471 77 61 C77.99 61.33 78.98 61.66 80 62 C81.31518555 63.60375977 81.31518555 63.60375977 82.63671875 65.69140625 C83.12785156 66.46363525 83.61898438 67.23586426 84.125 68.03149414 C84.640625 68.86672607 85.15625 69.70195801 85.6875 70.5625 C86.21988281 71.41642334 86.75226563 72.27034668 87.30078125 73.15014648 C104 100.31915018 104 100.31915018 104 109 C104.66 109.33 105.32 109.66 106 110 C106.488827 112.02514042 106.96128367 114.05505956 107.37109375 116.09765625 C108.09968672 119.46004494 109.01507961 122.74809975 109.9375 126.0625 C117.71457836 154.66055944 118.57553503 184.93793438 111.54394531 213.75390625 C111.01798413 215.92573877 110.51788483 218.10205646 110.0234375 220.28125 C108.34772168 227.51535448 106.29437253 234.36498864 103.26171875 241.16796875 C102.44397147 243.0034696 101.67226445 244.86045925 100.95703125 246.73828125 C95.96488369 259.76832705 88.30029513 274.45243497 79 285 C78.34 285 77.68 285 77 285 C76.71125 285.763125 76.4225 286.52625 76.125 287.3125 C75 290 75 290 73 293 C72.34 293 71.68 293 71 293 C70.6596875 293.804375 70.6596875 293.804375 70.3125 294.625 C67.97768371 298.84990566 64.67624683 302.84893129 61 306 C60.34 306 59.68 306 59 306 C58.67 306.99 58.34 307.98 58 309 C57.34 309 56.68 309 56 309 C56 309.66 56 310.32 56 311 C54.1875 313.125 54.1875 313.125 52 315 C51.01 315 50.02 315 49 315 C49 315.66 49 316.32 49 317 C45.53846154 320 45.53846154 320 43 320 C42.67 320.99 42.34 321.98 42 323 C40.27909203 324.03903878 38.5523026 325.0718841 36.77734375 326.015625 C34.85170252 327.02227878 34.85170252 327.02227878 32.75 328.75 C31 330 31 330 28 330 C28 330.66 28 331.32 28 332 C16.70711375 339.82421613 3.75934156 344.63104038 -9.06494141 349.28076172 C-10.33037971 349.7511101 -11.58854406 350.24164246 -12.83740234 350.75439453 C-18.8118164 353.16675183 -24.94334516 354.38208262 -31.25 355.625 C-33.38032084 356.05412938 -35.5105338 356.4837947 -37.640625 356.9140625 C-38.57422852 357.0992041 -39.50783203 357.2843457 -40.46972656 357.47509766 C-42.04683704 357.80226743 -43.61902923 358.15555413 -45.18115234 358.5480957 C-53.41812293 360.59462356 -62.56427346 360.10124347 -71 360.125 C-71.88864746 360.12959229 -72.77729492 360.13418457 -73.69287109 360.13891602 C-85.55814666 360.11191512 -96.90747453 358.91436178 -108.5 356.375 C-109.70599854 356.11356201 -110.91199707 355.85212402 -112.15454102 355.58276367 C-138.29894098 349.71509408 -138.29894098 349.71509408 -149 343 C-151.08906291 342.06948892 -153.19399242 341.17387121 -155.3125 340.3125 C-156.38113281 339.87550781 -157.44976562 339.43851562 -158.55078125 338.98828125 C-159.35902344 338.66214844 -160.16726562 338.33601563 -161 338 C-161 337.34 -161 336.68 -161 336 C-161.84933105 335.83455688 -161.84933105 335.83455688 -162.71582031 335.66577148 C-167.1450258 334.3747878 -170.88384235 331.5209651 -174.75 329.0625 C-176.08224609 328.23588867 -176.08224609 328.23588867 -177.44140625 327.39257812 C-178.28058594 326.86212891 -179.11976563 326.33167969 -179.984375 325.78515625 C-180.75491211 325.29926025 -181.52544922 324.81336426 -182.31933594 324.31274414 C-182.87395508 323.87953857 -183.42857422 323.44633301 -184 323 C-184 322.34 -184 321.68 -184 321 C-185.65 320.34 -187.3 319.68 -189 319 C-189 318.34 -189 317.68 -189 317 C-189.8971875 316.566875 -189.8971875 316.566875 -190.8125 316.125 C-193 315 -193 315 -196 313 C-196 312.34 -196 311.68 -196 311 C-196.66 311 -197.32 311 -198 311 C-198 310.34 -198 309.68 -198 309 C-198.99 308.67 -199.98 308.34 -201 308 C-205.77272727 303.68181818 -205.77272727 303.68181818 -207 300 C-207.66 300 -208.32 300 -209 300 C-210.60634015 298.26608049 -212.1375287 296.461909 -213.625 294.625 C-214.85089844 293.12839844 -214.85089844 293.12839844 -216.1015625 291.6015625 C-218 289 -218 289 -218 287 C-218.99 286.67 -219.98 286.34 -221 286 C-221 285.01 -221 284.02 -221 283 C-221.66 283 -222.32 283 -223 283 C-224.12915039 281.59472656 -224.12915039 281.59472656 -225.34765625 279.640625 C-225.78787109 278.93679688 -226.22808594 278.23296875 -226.68164062 277.5078125 C-227.13732422 276.76273437 -227.59300781 276.01765625 -228.0625 275.25 C-228.52205078 274.52039063 -228.98160156 273.79078125 -229.45507812 273.0390625 C-231.52622182 269.69360278 -233.19961356 266.88898096 -234 263 C-234.66 263 -235.32 263 -236 263 C-238.9086761 256.48456554 -241.77530063 249.9514481 -244.62524414 243.41015625 C-246.2483114 239.67532706 -246.2483114 239.67532706 -248 236 C-248.35528716 234.67234797 -248.68247424 233.33718596 -249 232 C-249.28617188 230.87851562 -249.57234375 229.75703125 -249.8671875 228.6015625 C-256.09215177 204.11959215 -256.09215177 204.11959215 -256.7890625 193.5 C-256.95662184 190.96933465 -256.95662184 190.96933465 -257.51171875 188.39453125 C-258.21707451 183.49089803 -258.19137881 178.63569876 -258.1875 173.6875 C-258.18669434 172.62168701 -258.18588867 171.55587402 -258.18505859 170.45776367 C-258.11638222 161.50357649 -257.333888 152.84386014 -256 144 C-255.83242187 142.7728125 -255.66484375 141.545625 -255.4921875 140.28125 C-254.73445578 134.94104546 -253.76049869 130.10612072 -252 125 C-251.55159272 123.29449716 -251.11397175 121.58611977 -250.6875 119.875 C-249.00916538 113.65677023 -246.57050595 107.89406154 -244 102 C-243.51144531 100.82695312 -243.02289063 99.65390625 -242.51953125 98.4453125 C-236.9386548 85.10285724 -229.9032889 72.44708573 -221 61 C-220.34 61 -219.68 61 -219 61 C-218.71125 60.236875 -218.4225 59.47375 -218.125 58.6875 C-217 56 -217 56 -215 53 C-214.34 53 -213.68 53 -213 53 C-212.71125 52.401875 -212.4225 51.80375 -212.125 51.1875 C-211 49 -211 49 -209 46 C-208.34 46 -207.68 46 -207 46 C-206.67 45.01 -206.34 44.02 -206 43 C-201.68181818 38.22727273 -201.68181818 38.22727273 -198 37 C-198 36.34 -198 35.68 -198 35 C-193.52941176 31 -193.52941176 31 -191 31 C-190.67 30.01 -190.34 29.02 -190 28 C-187.4375 26.8125 -187.4375 26.8125 -185 26 C-185 25.34 -185 24.68 -185 24 C-183.11987305 22.48779297 -183.11987305 22.48779297 -180.51171875 20.7421875 C-179.57779297 20.11699219 -178.64386719 19.49179688 -177.68164062 18.84765625 C-176.19954102 17.87119141 -176.19954102 17.87119141 -174.6875 16.875 C-173.71103516 16.21628906 -172.73457031 15.55757812 -171.72851562 14.87890625 C-170.79072266 14.25628906 -169.85292969 13.63367188 -168.88671875 12.9921875 C-168.02264404 12.41839355 -167.15856934 11.84459961 -166.26831055 11.25341797 C-164 10 -164 10 -161 10 C-161 9.34 -161 8.68 -161 8 C-155.61191879 5.67332857 -150.19587409 3.41960922 -144.76953125 1.18359375 C-142.06626401 0.07368147 -142.06626401 0.07368147 -139.82421875 -1.15234375 C-138 -2 -138 -2 -135 -2 C-134.67 -2.66 -134.34 -3.32 -134 -4 C-131.95718684 -4.48473533 -129.91032752 -4.9554345 -127.8515625 -5.3671875 C-124.57664865 -6.0939492 -121.40103453 -7.03807725 -118.1875 -8 C-111.8151377 -9.83818143 -105.56626305 -11.10858005 -99 -12 C-97.76121094 -12.185625 -96.52242187 -12.37125 -95.24609375 -12.5625 C-63.62913837 -17.0426199 -29.16100892 -13.33692621 0 0 Z M-138 3 C-138 3.66 -138 4.32 -138 5 C-138.99 4.67 -139.98 4.34 -141 4 C-143.56635101 5.01894938 -145.97165724 6.09021745 -148.4375 7.3125 C-149.10587891 7.63412109 -149.77425781 7.95574219 -150.46289062 8.28710938 C-153.65648895 9.82851907 -156.8331379 11.40441986 -160 13 C-160 13.66 -160 14.32 -160 15 C-161.2684375 15.3403125 -161.2684375 15.3403125 -162.5625 15.6875 C-166.09131469 17.03486561 -168.5352571 18.67837603 -171.484375 20.9765625 C-173 22 -173 22 -175 22 C-175 22.66 -175 23.32 -175 24 C-176.2065625 24.4021875 -176.2065625 24.4021875 -177.4375 24.8125 C-178.7059375 25.4003125 -178.7059375 25.4003125 -180 26 C-180.33 26.99 -180.66 27.98 -181 29 C-182.6635479 29.67441131 -184.33066942 30.3400321 -186 31 C-187.37310707 32.29233607 -188.71034824 33.62437146 -190 35 C-190.99 35.66 -191.98 36.32 -193 37 C-193 37.66 -193 38.32 -193 39 C-193.53625 39.20625 -194.0725 39.4125 -194.625 39.625 C-197.91978009 41.53250426 -200.59363628 44.04819384 -203 47 C-203 47.66 -203 48.32 -203 49 C-203.99 49.33 -204.98 49.66 -206 50 C-206 50.66 -206 51.32 -206 52 C-206.66 52 -207.32 52 -208 52 C-210.39820305 54.63684747 -210.39820305 54.63684747 -211 58 C-211.66 58 -212.32 58 -213 58 C-214.30263017 59.43080494 -214.30263017 59.43080494 -215.57421875 61.33203125 C-216.07381104 62.04319092 -216.57340332 62.75435059 -217.08813477 63.48706055 C-217.61592529 64.25445557 -218.14371582 65.02185059 -218.6875 65.8125 C-219.22624756 66.58698486 -219.76499512 67.36146973 -220.32006836 68.15942383 C-230.2212256 80.63250549 -230.2212256 80.63250549 -235 95 C-235.66 95 -236.32 95 -237 95 C-237.90001906 97.43731871 -238.78762736 99.87828097 -239.6640625 102.32421875 C-240.63168702 104.98660084 -241.62699324 107.62816766 -242.6484375 110.26953125 C-258.38982355 151.77429016 -257.72150016 198.90291176 -241 240 C-240.67064453 240.81001465 -240.34128906 241.6200293 -240.00195312 242.45458984 C-236.72624502 250.38450703 -233.41781712 258.09431501 -228.35546875 265.0703125 C-226.91590752 267.11971667 -225.78122388 269.21724285 -224.625 271.4375 C-221.74715433 276.74323502 -218.14850098 281.61339521 -214 286 C-213.34 286 -212.68 286 -212 286 C-211.773125 286.70125 -211.54625 287.4025 -211.3125 288.125 C-209.66158712 291.74128535 -207.7091165 294.08769976 -205 297 C-204.34 297 -203.68 297 -203 297 C-202.505 298.485 -202.505 298.485 -202 300 C-201.34 300 -200.68 300 -200 300 C-199.505 301.485 -199.505 301.485 -199 303 C-198.34 303 -197.68 303 -197 303 C-196.01 304.98 -196.01 304.98 -195 307 C-194.34 307 -193.68 307 -193 307 C-192.505 308.485 -192.505 308.485 -192 310 C-191.34 310 -190.68 310 -190 310 C-190 310.66 -190 311.32 -190 312 C-187.17400076 314.54967931 -184.06732791 316.7496238 -181 319 C-180.39671875 319.44472656 -179.7934375 319.88945312 -179.171875 320.34765625 C-176.53366344 322.20639621 -175.30511785 323 -172 323 C-171.505 324.485 -171.505 324.485 -171 326 C-168.98276694 327.45929077 -168.98276694 327.45929077 -166.5625 328.6875 C-165.75941406 329.12449219 -164.95632812 329.56148438 -164.12890625 330.01171875 C-162.08884169 331.14035414 -162.08884169 331.14035414 -160 331 C-160 331.66 -160 332.32 -160 333 C-135.8918954 344.88123671 -135.8918954 344.88123671 -110 351 C-108.90171875 351.31453125 -107.8034375 351.6290625 -106.671875 351.953125 C-77.6123275 360.23818748 -37.50241268 356.99215325 -10 345 C-7.58470552 344.16269791 -5.16795392 343.32959089 -2.75 342.5 C6.47898299 339.18779483 14.72676077 334.27907549 23.06396484 329.17431641 C24.70540749 328.17868726 26.37541979 327.23039892 28.05078125 326.29296875 C28.69402344 325.86628906 29.33726562 325.43960937 30 325 C30 324.34 30 323.68 30 323 C30.99 323 31.98 323 33 323 C33 322.34 33 321.68 33 321 C34.98 320.34 36.96 319.68 39 319 C39 318.34 39 317.68 39 317 C39.598125 316.731875 40.19625 316.46375 40.8125 316.1875 C43.03033235 315.11763032 43.03033235 315.11763032 44.5625 313.4375 C46 312 46 312 49 311 C49 310.34 49 309.68 49 309 C49.66 309 50.32 309 51 309 C51 308.34 51 307.68 51 307 C51.66 307 52.32 307 53 307 C53 306.34 53 305.68 53 305 C53.66 304.67 54.32 304.34 55 304 C57.76891416 301.75025725 60.47646383 299.52353617 63 297 C63 296.01 63 295.02 63 294 C63.59683594 293.92523438 64.19367188 293.85046875 64.80859375 293.7734375 C67.769366 292.72845906 68.45159774 291.27976692 70.0625 288.625 C72.76504579 284.22350632 72.76504579 284.22350632 74.68359375 282.3984375 C76.34271407 280.95602329 76.34271407 280.95602329 76 278 C76.58265625 277.79375 77.1653125 277.5875 77.765625 277.375 C80.86200448 275.4695357 81.97844085 273.14943849 83.75 270 C84.67039062 268.39125 84.67039062 268.39125 85.609375 266.75 C87.15042177 264.21613887 87.15042177 264.21613887 87 262 C87.66 262 88.32 262 89 262 C89 260.68 89 259.36 89 258 C89.66 258 90.32 258 91 258 C92.71097037 254.06476814 94.35992822 250.11569542 95.9375 246.125 C97.20951546 242.9135237 98.55155601 239.76045523 100 236.625 C103.59002766 228.60774456 106.11187559 220.73322336 107 212 C107.47240112 210.38315308 107.47240112 210.38315308 107.9543457 208.73364258 C111.2076533 197.11729119 111.37055181 184.7988744 111.3125 172.8125 C111.3117598 171.74921982 111.3117598 171.74921982 111.31100464 170.66445923 C111.28259261 157.25454733 110.32607222 144.03767645 107 131 C106.67902344 129.62908203 106.67902344 129.62908203 106.3515625 128.23046875 C104.98841154 122.521358 103.44991345 117.32589881 101 112 C100.31163487 110.00736409 99.63718601 108.00958663 99 106 C98.34 106 97.68 106 97 106 C96.34 102.37 95.68 98.74 95 95 C94.34 95 93.68 95 93 95 C92.855625 94.21625 92.71125 93.4325 92.5625 92.625 C92.12201075 90.03578982 92.12201075 90.03578982 91 88 C90.34 88 89.68 88 89 88 C89 87.01 89 86.02 89 85 C88.34 85 87.68 85 87 85 C86.90332031 84.28714844 86.80664062 83.57429688 86.70703125 82.83984375 C85.88889373 79.55373337 84.55441889 77.38086791 82.6875 74.5625 C82.0584375 73.60859375 81.429375 72.6546875 80.78125 71.671875 C80.1934375 70.79015625 79.605625 69.9084375 79 69 C78.5771875 68.32453125 78.154375 67.6490625 77.71875 66.953125 C76.86766738 65.59912992 75.94271647 64.29187072 75 63 C74.34 63 73.68 63 73 63 C72.773125 62.29875 72.54625 61.5975 72.3125 60.875 C70.66158712 57.25871465 68.7091165 54.91230024 66 52 C65.34 52 64.68 52 64 52 C63.67 51.01 63.34 50.02 63 49 C62.34 49 61.68 49 61 49 C60.77183594 48.44699219 60.54367187 47.89398438 60.30859375 47.32421875 C58.62457111 44.33319346 56.49456758 42.23028231 54.0625 39.8125 C53.18722656 38.93207031 52.31195313 38.05164063 51.41015625 37.14453125 C49.11635158 34.8196831 49.11635158 34.8196831 46 34 C44.33333333 32.33333333 42.66666667 30.66666667 41 29 C40.34 29 39.68 29 39 29 C39 28.34 39 27.68 39 27 C37.34467377 25.98133771 35.67739862 24.98189187 34 24 C33.67 23.34 33.34 22.68 33 22 C31.26524003 20.91900081 29.48672691 19.90741438 27.6875 18.9375 C26.72199219 18.41027344 25.75648438 17.88304688 24.76171875 17.33984375 C22.14316911 15.94940029 22.14316911 15.94940029 19.70703125 15.44140625 C19.14371094 15.29574219 18.58039063 15.15007812 18 15 C17.67 14.34 17.34 13.68 17 13 C-30.10428282 -14.11641207 -87.86600795 -16.63487048 -138 3 Z " fill="#2D2D2D" transform="translate(321,77)"/>
<path d="M0 0 C1.73830078 0.74636719 1.73830078 0.74636719 3.51171875 1.5078125 C4.68347656 2.02085938 5.85523438 2.53390625 7.0625 3.0625 C8.12597656 3.52785156 9.18945312 3.99320313 10.28515625 4.47265625 C13.07621957 6.04288036 14.40233948 7.25246617 16 10 C16 10.66 16 11.32 16 12 C11.52624521 10.60393467 7.14365413 9.13075397 2.875 7.1875 C1.25041392 6.45741157 -0.37463737 5.72835799 -2 5 C-3.03253906 4.53335938 -4.06507813 4.06671875 -5.12890625 3.5859375 C-15.25553467 -0.74928213 -25.56064382 -3.30325752 -36.34985352 -5.46459961 C-38.04327768 -5.80671653 -39.73220733 -6.17248011 -41.41381836 -6.56860352 C-50.85217573 -8.62154056 -60.4494474 -8.43983244 -70.0625 -8.4375 C-70.99352539 -8.4385675 -71.92455078 -8.43963501 -72.88378906 -8.44073486 C-93.84476059 -8.40608193 -113.03121669 -5.37427908 -132.78125 1.86328125 C-136 3 -136 3 -138 3 C-138 3.66 -138 4.32 -138 5 C-138.53625 5.1134375 -139.0725 5.226875 -139.625 5.34375 C-142.54276892 6.14997562 -145.21947147 7.30437273 -148 8.5 C-153.60053981 10.90823212 -153.60053981 10.90823212 -156.3125 11.53125 C-156.869375 11.6859375 -157.42625 11.840625 -158 12 C-158.33 12.66 -158.66 13.32 -159 14 C-163.5 17 -163.5 17 -166 17 C-166.33 17.66 -166.66 18.32 -167 19 C-168.32467746 19.6837045 -169.65863633 20.34964186 -171 21 C-171.99 21.99 -171.99 21.99 -173 23 C-173.66 22.67 -174.32 22.34 -175 22 C-175 22.66 -175 23.32 -175 24 C-176.65848177 25.01351664 -178.32665961 26.01120795 -180 27 C-181.35251497 28.31387169 -182.68945377 29.64426252 -184 31 C-184.99 31.495 -184.99 31.495 -186 32 C-186.66 32.99 -187.32 33.98 -188 35 C-188.598125 35.28875 -189.19625 35.5775 -189.8125 35.875 C-194.7030434 38.3901366 -198.08611064 43.1893538 -201.5703125 47.3515625 C-202.99132301 48.98999538 -204.38052368 50.5556022 -206 52 C-206.66 52 -207.32 52 -208 52 C-208.495 53.485 -208.495 53.485 -209 55 C-209.66 55.99 -210.32 56.98 -211 58 C-211.66 58 -212.32 58 -213 58 C-213.24234375 58.53367187 -213.4846875 59.06734375 -213.734375 59.6171875 C-215.33938046 62.63895703 -217.27211511 65.33308765 -219.25 68.125 C-226.10037693 77.54511528 -226.10037693 77.54511528 -231 88 C-231.66 88 -232.32 88 -233 88 C-233.66 90.31 -234.32 92.62 -235 95 C-235.66 95 -236.32 95 -237 95 C-237.0928125 96.36125 -237.0928125 96.36125 -237.1875 97.75 C-237.83015357 102.31284036 -239.67694181 106.2700248 -241.55078125 110.44921875 C-245.23575695 119.47790585 -247.84253778 128.61976739 -249.6875 138.1875 C-250.00883911 139.84144775 -250.00883911 139.84144775 -250.33666992 141.52880859 C-252.47008973 153.2980772 -252.92102348 165.06060891 -253 177 C-254.95751953 176.16625977 -254.95751953 176.16625977 -257 175 C-259.55066316 165.01723212 -257.47126437 154.02193501 -256 144 C-255.83113281 142.75992188 -255.66226563 141.51984375 -255.48828125 140.2421875 C-254.7300556 134.91641052 -253.75592456 130.092854 -252 125 C-251.55159272 123.29449716 -251.11397175 121.58611977 -250.6875 119.875 C-249.00916538 113.65677023 -246.57050595 107.89406154 -244 102 C-243.51144531 100.82695312 -243.02289063 99.65390625 -242.51953125 98.4453125 C-236.9386548 85.10285724 -229.9032889 72.44708573 -221 61 C-220.34 61 -219.68 61 -219 61 C-218.71125 60.236875 -218.4225 59.47375 -218.125 58.6875 C-217 56 -217 56 -215 53 C-214.34 53 -213.68 53 -213 53 C-212.71125 52.401875 -212.4225 51.80375 -212.125 51.1875 C-211 49 -211 49 -209 46 C-208.34 46 -207.68 46 -207 46 C-206.67 45.01 -206.34 44.02 -206 43 C-201.68181818 38.22727273 -201.68181818 38.22727273 -198 37 C-198 36.34 -198 35.68 -198 35 C-193.52941176 31 -193.52941176 31 -191 31 C-190.67 30.01 -190.34 29.02 -190 28 C-187.4375 26.8125 -187.4375 26.8125 -185 26 C-185 25.34 -185 24.68 -185 24 C-183.11987305 22.48779297 -183.11987305 22.48779297 -180.51171875 20.7421875 C-179.57779297 20.11699219 -178.64386719 19.49179688 -177.68164062 18.84765625 C-176.19954102 17.87119141 -176.19954102 17.87119141 -174.6875 16.875 C-173.71103516 16.21628906 -172.73457031 15.55757812 -171.72851562 14.87890625 C-170.79072266 14.25628906 -169.85292969 13.63367188 -168.88671875 12.9921875 C-168.02264404 12.41839355 -167.15856934 11.84459961 -166.26831055 11.25341797 C-164 10 -164 10 -161 10 C-161 9.34 -161 8.68 -161 8 C-155.61191879 5.67332857 -150.19587409 3.41960922 -144.76953125 1.18359375 C-142.06626401 0.07368147 -142.06626401 0.07368147 -139.82421875 -1.15234375 C-138 -2 -138 -2 -135 -2 C-134.67 -2.66 -134.34 -3.32 -134 -4 C-131.95718684 -4.48473533 -129.91032752 -4.9554345 -127.8515625 -5.3671875 C-124.57664865 -6.0939492 -121.40103453 -7.03807725 -118.1875 -8 C-111.8151377 -9.83818143 -105.56626305 -11.10858005 -99 -12 C-97.76121094 -12.185625 -96.52242187 -12.37125 -95.24609375 -12.5625 C-63.71102797 -17.03101615 -29.05767323 -13.43569569 0 0 Z " fill="#2A2A2A" transform="translate(321,77)"/>
<path d="M0 0 C4.97209562 1.76429199 9.43438061 4.3939166 14 7 C14 7.66 14 8.32 14 9 C14.54140625 9.09410156 15.0828125 9.18820313 15.640625 9.28515625 C18.69771088 10.21139253 21.05769005 11.7245356 23.75 13.4375 C24.73484375 14.05496094 25.7196875 14.67242187 26.734375 15.30859375 C27.48203125 15.86675781 28.2296875 16.42492187 29 17 C29 17.66 29 18.32 29 19 C29.61875 19.309375 30.2375 19.61875 30.875 19.9375 C32.25 20.625 33.625 21.3125 35 22 C35 22.66 35 23.32 35 24 C35.53625 24.226875 36.0725 24.45375 36.625 24.6875 C39.82460161 26.45570089 42.29037223 28.53670203 45 31 C45 31.66 45 32.32 45 33 C45.99 33.33 46.98 33.66 48 34 C48 34.66 48 35.32 48 36 C48.99 36.33 49.98 36.66 51 37 C52.60546875 38.55859375 52.60546875 38.55859375 54.1875 40.4375 C54.71730469 41.05496094 55.24710937 41.67242187 55.79296875 42.30859375 C57 44 57 44 57 46 C57.66 46 58.32 46 59 46 C63 51.41176471 63 51.41176471 63 54 C63.99 54.33 64.98 54.66 66 55 C67.31518555 56.60375977 67.31518555 56.60375977 68.63671875 58.69140625 C69.12785156 59.46363525 69.61898437 60.23586426 70.125 61.03149414 C70.640625 61.86672607 71.15625 62.70195801 71.6875 63.5625 C72.21988281 64.41642334 72.75226563 65.27034668 73.30078125 66.15014648 C90 93.31915018 90 93.31915018 90 102 C90.66 102.33 91.32 102.66 92 103 C92.488827 105.02514042 92.96128367 107.05505956 93.37109375 109.09765625 C94.09968672 112.46004494 95.01507961 115.74809975 95.9375 119.0625 C101.48942164 139.47815969 108.78959687 173.25377555 99.9609375 193.3671875 C99.64382813 193.90601563 99.32671875 194.44484375 99 195 C97.515 194.01 97.515 194.01 96 193 C95.76938698 189.90421242 95.72566918 187.00908625 95.8125 183.91796875 C95.82385986 182.99397781 95.83521973 182.06998688 95.84692383 181.11799622 C95.89564019 177.16921628 95.97817406 173.22137393 96.06152344 169.27319336 C96.35643091 153.99103616 95.83983631 138.88375939 92 124 C91.78601563 123.08605469 91.57203125 122.17210937 91.3515625 121.23046875 C89.78838951 114.53875494 89.78838951 114.53875494 87.375 108.125 C86.01437955 105.0326808 85.40727662 102.33966827 85 99 C84.34 99 83.68 99 83 99 C81.80712589 95.12315913 81 92.08378077 81 88 C80.34 88 79.68 88 79 88 C78.01 84.535 78.01 84.535 77 81 C76.34 81 75.68 81 75 81 C75 80.01 75 79.02 75 78 C74.34 78 73.68 78 73 78 C72.62488281 77.20335937 72.24976563 76.40671875 71.86328125 75.5859375 C69.04277304 69.74599356 66.32369711 64.81783392 62 60 C61.67 59.01 61.34 58.02 61 57 C59.69026002 55.6434836 58.35197858 54.31442362 57 53 C54.88844937 50.49947952 52.80050109 47.98333159 50.734375 45.4453125 C47.45525968 41.50660502 43.95471165 37.79061999 40.375 34.125 C39.45460938 33.17882812 38.53421875 32.23265625 37.5859375 31.2578125 C35.08990352 29.07849582 34.07984808 28.65499032 31 28 C30.67 27.01 30.34 26.02 30 25 C28.34051852 23.98812105 26.67419438 22.9873454 25 22 C25 21.34 25 20.68 25 20 C24.195625 19.731875 23.39125 19.46375 22.5625 19.1875 C21.716875 18.795625 20.87125 18.40375 20 18 C19.67 17.01 19.34 16.02 19 15 C17.24762539 14.45362053 17.24762539 14.45362053 15 14 C12.76265595 13.02219779 10.55594391 11.97285664 8.375 10.875 C7.22773438 10.31554687 6.08046875 9.75609375 4.8984375 9.1796875 C1.27438505 6.45432191 0.80793756 4.37545406 0 0 Z " fill="#303030" transform="translate(335,84)"/>
<path d="M0 0 C4.38312512 0.71501667 7.88481107 1.61187584 10.74169922 5.16796875 C12.2799653 7.89677223 13.63513243 10.65119012 14.9375 13.5 C15.86269297 15.40653559 16.78844989 17.31279764 17.71484375 19.21875 C18.10792725 20.06373047 18.50101074 20.90871094 18.90600586 21.77929688 C20.03669606 24.19576578 20.03669606 24.19576578 22 27 C22.82334421 23.89606518 23.40108211 20.79030888 23.9375 17.625 C24.65356724 13.60317873 25.54974222 9.83282414 27 6 C29.64 6.33 32.28 6.66 35 7 C35.98351763 10.08907651 35.96409099 12.01001837 35.125 15.125 C34.33526387 18.32550959 33.84417091 21.33743635 33.625 24.625 C33.03888029 31.61420102 30.92530814 38.28380882 29 45 C23.296875 46.1640625 23.296875 46.1640625 20.625 44.6875 C19 43 19 43 19 41 C18.34 40.67 17.68 40.34 17 40 C15.61961502 37.62315878 14.32261713 35.25180931 13.0625 32.8125 C12.71509766 32.15185547 12.36769531 31.49121094 12.00976562 30.81054688 C9.95854503 26.89738969 7.96358775 22.95795273 6 19 C5.79503906 20.26457031 5.59007812 21.52914063 5.37890625 22.83203125 C5.10689979 24.49220863 4.83475728 26.15236373 4.5625 27.8125 C4.42779297 28.64587891 4.29308594 29.47925781 4.15429688 30.33789062 C4.02216797 31.14033203 3.89003906 31.94277344 3.75390625 32.76953125 C3.63345947 33.50792236 3.5130127 34.24631348 3.38891602 35.00708008 C3 37 3 37 2 40 C-1.76624671 41.25541557 -3.37188934 40.37061958 -7 39 C-7.33 37.35 -7.66 35.7 -8 34 C-7.34 34 -6.68 34 -6 34 C-6.02964844 32.98550781 -6.05929688 31.97101563 -6.08984375 30.92578125 C-6.0024939 27.10897263 -5.44709232 23.89093674 -4.5625 20.1875 C-3.40082618 15.09567739 -2.59767082 10.20042837 -2.30859375 4.98828125 C-2 3 -2 3 0 0 Z " fill="#141414" transform="translate(209,370)"/>
<path d="M0 0 C1.4375 1.625 1.4375 1.625 1.4375 4.625 C2.0975 4.625 2.7575 4.625 3.4375 4.625 C3.4375 5.945 3.4375 7.265 3.4375 8.625 C4.71625 8.645625 5.995 8.66625 7.3125 8.6875 C8.03179687 8.69910156 8.75109375 8.71070313 9.4921875 8.72265625 C11.51935404 8.75149242 11.51935404 8.75149242 13.4375 7.625 C16.5 8.8125 16.5 8.8125 19.4375 10.625 C20.3125 12.8125 20.3125 12.8125 20.4375 14.625 C19.7775 14.625 19.1175 14.625 18.4375 14.625 C18.1075 15.945 17.7775 17.265 17.4375 18.625 C16.7775 18.625 16.1175 18.625 15.4375 18.625 C14.9425 19.12 14.9425 19.12 14.4375 19.625 C12.52001548 19.51324477 10.60345168 19.38551853 8.6875 19.25 C4.24043414 19.08041014 4.24043414 19.08041014 0.53125 21.1796875 C-1.00694618 23.30916153 -1.00694618 23.30916153 -2.5625 26.625 C-1.9025 26.625 -1.2425 26.625 -0.5625 26.625 C-0.5625 27.285 -0.5625 27.945 -0.5625 28.625 C0.22125 28.91375 1.005 29.2025 1.8125 29.5 C4.4375 30.625 4.4375 30.625 6.4375 32.625 C6.3125 35.0625 6.3125 35.0625 5.4375 37.625 C3.375 39.4375 3.375 39.4375 1.4375 40.625 C-0.5425 39.635 -2.5225 38.645 -4.5625 37.625 C-4.5625 36.965 -4.5625 36.305 -4.5625 35.625 C-5.738125 35.439375 -5.738125 35.439375 -6.9375 35.25 C-9.5625 34.625 -9.5625 34.625 -11.5625 32.625 C-13.4575031 31.61433168 -15.38057437 30.70754775 -17.3359375 29.8203125 C-20.19245851 28.28681175 -22.70483635 26.42470412 -25.3125 24.5 C-26.29734375 23.77554688 -27.2821875 23.05109375 -28.296875 22.3046875 C-29.04453125 21.75039062 -29.7921875 21.19609375 -30.5625 20.625 C-28.9125 17.655 -27.2625 14.685 -25.5625 11.625 C-24.9025 11.625 -24.2425 11.625 -23.5625 11.625 C-23.2325 9.645 -22.9025 7.665 -22.5625 5.625 C-21.9025 5.625 -21.2425 5.625 -20.5625 5.625 C-20.376875 4.861875 -20.19125 4.09875 -20 3.3125 C-18.36625918 0.25811499 -16.86832951 -0.74617993 -13.6328125 -1.9375 C-8.84706156 -2.9488285 -4.28672645 -2.30019468 0 0 Z M-13.75 9.8125 C-15.40695818 12.383642 -16.57337267 14.74004528 -17.5625 17.625 C-16.9025 17.625 -16.2425 17.625 -15.5625 17.625 C-15.5625 18.285 -15.5625 18.945 -15.5625 19.625 C-13.5825 20.285 -11.6025 20.945 -9.5625 21.625 C-8.54898336 19.96651823 -7.55129205 18.29834039 -6.5625 16.625 C-5.94375 15.6040625 -5.94375 15.6040625 -5.3125 14.5625 C-4.38319912 12.16180605 -4.66157126 11.00017576 -5.5625 8.625 C-6.60592781 7.38663834 -6.60592781 7.38663834 -8.875 7.25 C-11.75335811 7.37646033 -11.75335811 7.37646033 -13.75 9.8125 Z " fill="#161616" transform="translate(131.5625,157.375)"/>
<path d="M0 0 C2.0625 0.4375 2.0625 0.4375 4 1 C4 1.66 4 2.32 4 3 C4.57621094 3.26039063 5.15242188 3.52078125 5.74609375 3.7890625 C8.16230095 5.08719808 10.00794479 6.5619243 12.0625 8.375 C13.06990234 9.25285156 13.06990234 9.25285156 14.09765625 10.1484375 C17.79033908 13.74254769 19.45091524 16.05313838 19.5625 21.3125 C19.44410651 26.51484905 18.12551601 29.10515534 14.5078125 32.7578125 C11.38993224 35.32642888 8.94055986 35.08566434 5 35 C4.96261719 35.83144531 4.92523438 36.66289062 4.88671875 37.51953125 C4.82097656 38.60621094 4.75523437 39.69289063 4.6875 40.8125 C4.62949219 41.89144531 4.57148438 42.97039062 4.51171875 44.08203125 C4 47 4 47 2.6171875 48.8984375 C1 50 1 50 -1.5625 49.8125 C-4 49 -4 49 -6 47 C-5.9765625 44.28515625 -5.9765625 44.28515625 -5.625 41.0625 C-4.88415999 34.96055339 -4.88415999 34.96055339 -6 29 C-6.99 28.34 -7.98 27.68 -9 27 C-12.55717213 28.98768883 -12.55717213 28.98768883 -15.5 31.75 C-17 33 -17 33 -19.5625 32.875 C-22 32 -22 32 -24 29 C-23.90566534 25.415283 -23.14460148 24.15632593 -20.6875 21.5 C-19.3571875 20.2625 -19.3571875 20.2625 -18 19 C-17.278125 18.0925 -16.55625 17.185 -15.8125 16.25 C-14 14 -14 14 -12 13 C-11.67 12.01 -11.34 11.02 -11 10 C-10.01 10 -9.02 10 -8 10 C-7.773125 9.443125 -7.54625 8.88625 -7.3125 8.3125 C-5.63848923 5.36305245 -3.45043651 3.3247731 -1 1 C-0.67 0.67 -0.34 0.34 0 0 Z M-2.3125 16.5 C-3.1478125 17.7375 -3.1478125 17.7375 -4 19 C-1.14723863 21.93200474 1.65079784 24.64315404 5 27 C7.99324263 25.9024777 8.84610901 25.32317108 10.25 22.375 C10.62125 21.199375 10.62125 21.199375 11 20 C10.34 20 9.68 20 9 20 C9 19.34 9 18.68 9 18 C8.34 18 7.68 18 7 18 C6.34 16.68 5.68 15.36 5 14 C1.20543848 13.47297757 0.37028915 13.59968741 -2.3125 16.5 Z " fill="#151515" transform="translate(149,331)"/>
<path d="M0 0 C3.99040826 3.54379322 6.57724282 7.67647814 7.25390625 12.99609375 C7.56916109 18.86390151 6.35374698 24.10394345 3 29 C1.67372018 29.68059096 0.34087699 30.34863902 -1 31 C-1.33 31.99 -1.66 32.98 -2 34 C-7.35486152 36.89162522 -11.96279162 38.13474117 -18.04296875 36.42578125 C-27.92642024 32.92114273 -27.92642024 32.92114273 -30.1875 28.875 C-30.455625 28.25625 -30.72375 27.6375 -31 27 C-31.66 26.67 -32.32 26.34 -33 26 C-33.05425226 23.60385874 -33.09379027 21.20896147 -33.125 18.8125 C-33.14175781 18.13896484 -33.15851563 17.46542969 -33.17578125 16.77148438 C-33.21538674 12.71192193 -32.80020002 9.65001185 -31 6 C-30.34 6 -29.68 6 -29 6 C-28.95875 5.443125 -28.9175 4.88625 -28.875 4.3125 C-27.52447231 0.74324824 -25.03422731 -0.79869784 -22 -3 C-14.26011717 -5.4967364 -6.82444773 -4.30669032 0 0 Z M-19.8125 6.9375 C-23.05598175 11.47837445 -25.3812324 16.14075701 -24.625 21.8125 C-22.30377845 24.93722131 -19.63417883 26.7445564 -16 28 C-11.37504546 28.0797406 -9.63090584 27.54861378 -6.125 24.5 C-5.42375 23.675 -4.7225 22.85 -4 22 C-3.67 21.67 -3.34 21.34 -3 21 C-2.43138294 16.71018016 -1.83530378 12.02425063 -4.05859375 8.16015625 C-6.73899181 5.65409302 -9.49650661 4.65243023 -13.0625 4.375 C-17.01498089 4.71227898 -17.01498089 4.71227898 -19.8125 6.9375 Z " fill="#171717" transform="translate(320,100)"/>
<path d="M0 0 C1.60710523 0.11250865 3.20894777 0.30194229 4.8046875 0.5234375 C5.78050781 0.6575 6.75632812 0.7915625 7.76171875 0.9296875 C8.78910156 1.07664062 9.81648438 1.22359375 10.875 1.375 C11.89464844 1.51421875 12.91429687 1.6534375 13.96484375 1.796875 C24.34288031 3.24624506 24.34288031 3.24624506 27.125 6.4375 C30.56301703 11.13612327 30.71026312 15.27236533 30 21 C28.68133728 22.678298 27.34919532 24.34614767 26 26 C25.94139282 28.82912824 26.43065204 31.20070587 27 34 C27.99 34.33 28.98 34.66 30 35 C30 37.31 30 39.62 30 42 C26.77371174 43.01397631 25.43517654 43.20240769 22.3125 41.75 C20 40 20 40 18 37 C17.875 34.3125 17.875 34.3125 18 32 C17.34 32 16.68 32 16 32 C15.34 31.01 14.68 30.02 14 29 C12.03638136 28.42251197 12.03638136 28.42251197 9.875 28.3125 C8.59625 28.209375 7.3175 28.10625 6 28 C5.93941406 28.69867188 5.87882812 29.39734375 5.81640625 30.1171875 C5.73261719 31.02726562 5.64882813 31.93734375 5.5625 32.875 C5.48128906 33.77992187 5.40007812 34.68484375 5.31640625 35.6171875 C5 38 5 38 4 40 C1.03 39.67 -1.94 39.34 -5 39 C-5.24698431 34.30729806 -4.4996153 30.19627366 -3.4375 25.66015625 C-2.90320176 22.41143213 -2.99650214 19.29148274 -3 16 C-2.73074736 13.37021212 -2.41782467 10.74454684 -2.0625 8.125 C-1.97548828 7.44953125 -1.88847656 6.7740625 -1.79882812 6.078125 C-1.12785823 1.12785823 -1.12785823 1.12785823 0 0 Z M8 10 C7.67 13.3 7.34 16.6 7 20 C11.29 20 15.58 20 20 20 C20.33 17.69 20.66 15.38 21 13 C16.72153168 10.14768778 13.104369 10.39774304 8 10 Z " fill="#131313" transform="translate(252,84)"/>
<path d="M0 0 C2.11045721 2.06249228 3.46314866 3.58260394 5 6 C5.58974609 6.91652344 5.58974609 6.91652344 6.19140625 7.8515625 C9.05202511 12.85515367 9.87060101 17.288008 9 23 C6.77253223 29.09622759 2.41652601 33.50546709 -3 37 C-8.10157825 38.56550577 -14.0447206 39.10960304 -19.1015625 37.2109375 C-22.06294171 35.56012611 -24.91410633 33.69939181 -27 31 C-27 30.34 -27 29.68 -27 29 C-27.99 28.67 -28.98 28.34 -30 28 C-30 26.68 -30 25.36 -30 24 C-30.66 24 -31.32 24 -32 24 C-32.37634203 17.19796625 -31.77471079 12.24309927 -29 6 C-28.34 6 -27.68 6 -27 6 C-26.79375 5.4225 -26.5875 4.845 -26.375 4.25 C-24.19614667 0.68460365 -20.92463359 -1.25498055 -17.0625 -2.75 C-10.7955131 -3.50963478 -5.53846842 -3.09640112 0 0 Z M-21.875 10.6875 C-23.57458046 14.18108205 -23.19294508 17.14109842 -23 21 C-22.34 21 -21.68 21 -21 21 C-20.67 22.32 -20.34 23.64 -20 25 C-19.34 25 -18.68 25 -18 25 C-18 25.66 -18 26.32 -18 27 C-14.31044663 29.45970225 -11.28388877 29.57750613 -7 29 C-4.49958728 27.79679557 -4.49958728 27.79679557 -3 26 C-3 25.34 -3 24.68 -3 24 C-2.34 24 -1.68 24 -1 24 C0.46845421 18.52667068 -0.55961274 15.88077452 -3 11 C-3.66 11 -4.32 11 -5 11 C-5.33 10.34 -5.66 9.68 -6 9 C-12.09620391 4.82891311 -16.35815685 5.72234117 -21.875 10.6875 Z " fill="#131313" transform="translate(165,124)"/>
<path d="M0 0 C7.04008949 3.23626755 10.39443625 9.4250106 13.46484375 16.296875 C14.25390625 19.03125 14.25390625 19.03125 14.46484375 21.296875 C12.4294854 24.11506348 11.07688393 25.12995495 7.71484375 26.046875 C6.60109375 26.170625 6.60109375 26.170625 5.46484375 26.296875 C5.31015625 25.0284375 5.31015625 25.0284375 5.15234375 23.734375 C4.38870267 19.91616961 3.20504331 16.77727412 1.46484375 13.296875 C0.47484375 12.636875 -0.51515625 11.976875 -1.53515625 11.296875 C-1.53515625 10.636875 -1.53515625 9.976875 -1.53515625 9.296875 C-5.49515625 9.296875 -9.45515625 9.296875 -13.53515625 9.296875 C-13.53515625 9.956875 -13.53515625 10.616875 -13.53515625 11.296875 C-14.33953125 11.9775 -15.14390625 12.658125 -15.97265625 13.359375 C-19.34517715 17.22543555 -19.41570151 20.31235443 -19.53515625 25.296875 C-18.54515625 25.626875 -17.55515625 25.956875 -16.53515625 26.296875 C-15.84765625 28.359375 -15.84765625 28.359375 -15.53515625 30.296875 C-13.88515625 29.966875 -12.23515625 29.636875 -10.53515625 29.296875 C-10.79076948 26.9537537 -11.12786397 24.61844097 -11.53515625 22.296875 C-12.19515625 21.966875 -12.85515625 21.636875 -13.53515625 21.296875 C-13.86515625 20.636875 -14.19515625 19.976875 -14.53515625 19.296875 C-13.53515625 17.296875 -13.53515625 17.296875 -10.47265625 16.171875 C-9.50328125 15.883125 -8.53390625 15.594375 -7.53515625 15.296875 C-7.05304688 15.92335937 -6.5709375 16.54984375 -6.07421875 17.1953125 C-5.44257813 18.01257813 -4.8109375 18.82984375 -4.16015625 19.671875 C-3.53367187 20.48398438 -2.9071875 21.29609375 -2.26171875 22.1328125 C-0.56742131 24.33910695 -0.56742131 24.33910695 1.46484375 26.296875 C1.88671875 29.1875 1.88671875 29.1875 1.46484375 32.296875 C-0.58203125 34.34375 -0.58203125 34.34375 -3.28515625 36.046875 C-4.60773438 36.90539062 -4.60773438 36.90539062 -5.95703125 37.78125 C-11.93721811 41.296875 -11.93721811 41.296875 -16.53515625 41.296875 C-18.78515625 39.421875 -18.78515625 39.421875 -20.53515625 37.296875 C-20.53515625 36.636875 -20.53515625 35.976875 -20.53515625 35.296875 C-21.19515625 35.296875 -21.85515625 35.296875 -22.53515625 35.296875 C-27.88972473 28.57447282 -28.80048335 22.65467875 -28.53515625 14.296875 C-28.03515625 11.796875 -28.03515625 11.796875 -27.53515625 10.296875 C-26.87515625 10.296875 -26.21515625 10.296875 -25.53515625 10.296875 C-25.28765625 9.719375 -25.04015625 9.141875 -24.78515625 8.546875 C-19.48883599 -0.98650146 -9.94220842 -2.75746921 0 0 Z " fill="#171717" transform="translate(381.53515625,153.703125)"/>
<path d="M0 0 C2.33218272 0.84806644 3.44954313 1.8950996 5.0625 3.75 C4.4025 5.73 3.7425 7.71 3.0625 9.75 C2.4025 9.75 1.7425 9.75 1.0625 9.75 C0.7325 11.07 0.4025 12.39 0.0625 13.75 C-0.5975 13.75 -1.2575 13.75 -1.9375 13.75 C-3.75522642 17.95349235 -4.42594712 20.28465864 -2.9375 24.75 C-0.64711494 22.8031727 0.69716117 20.72933524 2.125 18.125 C4.0625 14.75 4.0625 14.75 6.0625 13.75 C6.0625 13.09 6.0625 12.43 6.0625 11.75 C7.8125 11.0625 7.8125 11.0625 10.0625 10.75 C12.3125 12.1875 12.3125 12.1875 14.0625 13.75 C13.37149602 18.76420839 11.19771096 21.67342483 8.2421875 25.6640625 C7.85289062 26.35242188 7.46359375 27.04078125 7.0625 27.75 C7.3925 28.74 7.7225 29.73 8.0625 30.75 C10.07758358 31.48323796 10.07758358 31.48323796 12.0625 31.75 C12.65417969 30.76257813 13.24585938 29.77515625 13.85546875 28.7578125 C14.65293456 27.4631033 15.45115129 26.1688564 16.25 24.875 C16.63736328 24.22402344 17.02472656 23.57304687 17.42382812 22.90234375 C19.82415594 19.05388427 21.44574305 16.91443959 26.0625 15.75 C28.152788 17.40481133 28.98856733 18.29434976 29.421875 20.96484375 C28.93412407 24.74491343 27.04232574 27.1582716 24.8125 30.125 C22.24465634 33.64758027 19.76110697 37.08654767 17.8125 41 C16.0625 43.75 16.0625 43.75 13.5 44.75 C11.0625 44.75 11.0625 44.75 8.0625 43.75 C7.0625 42.75 6.0625 41.75 5.0625 40.75 C3.5775 40.255 3.5775 40.255 2.0625 39.75 C2.0625 39.09 2.0625 38.43 2.0625 37.75 C0.7425 37.42 -0.5775 37.09 -1.9375 36.75 C-1.9375 36.09 -1.9375 35.43 -1.9375 34.75 C-3.05125 34.316875 -3.05125 34.316875 -4.1875 33.875 C-6.50489797 32.92697356 -8.71667115 31.90154089 -10.9375 30.75 C-10.9375 30.09 -10.9375 29.43 -10.9375 28.75 C-11.700625 28.646875 -12.46375 28.54375 -13.25 28.4375 C-16.12166484 27.70288806 -17.16792094 27.0783935 -18.9375 24.75 C-18.9375 24.09 -18.9375 23.43 -18.9375 22.75 C-18.2775 22.75 -17.6175 22.75 -16.9375 22.75 C-15.86224806 20.09771188 -14.84293849 17.46631546 -13.9375 14.75 C-13.009375 13.8528125 -13.009375 13.8528125 -12.0625 12.9375 C-9.62809284 10.43149263 -8.37559163 7.91380159 -6.9375 4.75 C-6.2775 4.75 -5.6175 4.75 -4.9375 4.75 C-4.81375 4.110625 -4.69 3.47125 -4.5625 2.8125 C-4.35625 2.131875 -4.15 1.45125 -3.9375 0.75 C-1.9375 -0.25 -1.9375 -0.25 0 0 Z " fill="#181818" transform="translate(368.9375,305.25)"/>
<path d="M0 0 C2.625 1.9375 2.625 1.9375 3.375 5.41796875 C3.85114155 10.46291008 3.07643055 15.21581309 2.25 20.1875 C1.96217276 22.03995155 1.67700202 23.89281786 1.39453125 25.74609375 C1.25869629 26.63409668 1.12286133 27.52209961 0.98291016 28.43701172 C0.29379164 33.25143997 -0.08355361 38.08341012 -0.375 42.9375 C-3.375 43.9375 -3.375 43.9375 -5.19921875 43.16015625 C-6.92447917 42.0859375 -8.64973958 41.01171875 -10.375 39.9375 C-10.30989583 37.95182292 -10.24479167 35.96614583 -10.1796875 33.98046875 C-10.24245538 31.62390281 -10.24245538 31.62390281 -12.375 28.9375 C-16.16058727 26.64681065 -19.85300127 24.8727341 -24.3125 25.0625 C-26.54492908 25.85756963 -26.54492908 25.85756963 -28.375 27.9375 C-34.54675573 28.4985687 -34.54675573 28.4985687 -37.3125 26.625 C-38.375 24.9375 -38.375 24.9375 -38.375 21.9375 C-37.385 21.9375 -36.395 21.9375 -35.375 21.9375 C-35.375 21.2775 -35.375 20.6175 -35.375 19.9375 C-34.715 19.9375 -34.055 19.9375 -33.375 19.9375 C-33.1275 19.298125 -32.88 18.65875 -32.625 18 C-31.375 15.9375 -31.375 15.9375 -29.3125 15.375 C-28.673125 15.230625 -28.03375 15.08625 -27.375 14.9375 C-27.045 13.9475 -26.715 12.9575 -26.375 11.9375 C-24.59765625 10.11328125 -24.59765625 10.11328125 -22.4375 8.25 C-21.37208984 7.31607422 -21.37208984 7.31607422 -20.28515625 6.36328125 C-18.375 4.9375 -18.375 4.9375 -16.375 4.9375 C-16.045 3.9475 -15.715 2.9575 -15.375 1.9375 C-14.715 1.9375 -14.055 1.9375 -13.375 1.9375 C-13.045 0.9475 -12.715 -0.0425 -12.375 -1.0625 C-8.40471601 -3.04764199 -4.03384521 -1.26991423 0 0 Z M-10.98046875 11.1796875 C-11.50253906 11.71851563 -12.02460938 12.25734375 -12.5625 12.8125 C-13.09230469 13.34617187 -13.62210938 13.87984375 -14.16796875 14.4296875 C-15.58331389 15.87581877 -15.58331389 15.87581877 -15.375 17.9375 C-14.385 17.9375 -13.395 17.9375 -12.375 17.9375 C-12.375 18.5975 -12.375 19.2575 -12.375 19.9375 C-10.42896726 20.52820014 -10.42896726 20.52820014 -8.375 20.9375 C-6.71157163 19.27407163 -7.01451903 17.1549291 -6.8125 14.875 C-6.72871094 13.95589844 -6.64492187 13.03679687 -6.55859375 12.08984375 C-6.49800781 11.37957031 -6.43742187 10.66929687 -6.375 9.9375 C-9.31786738 9.63152985 -9.31786738 9.63152985 -10.98046875 11.1796875 Z " fill="#171717" transform="translate(193.375,362.0625)"/>
<path d="M0 0 C0.495 0.99 0.495 0.99 1 2 C1.66 2.33 2.32 2.66 3 3 C3.92998897 5.64391096 4.74526056 8.24338482 5.5 10.9375 C5.83100708 12.08980103 5.83100708 12.08980103 6.16870117 13.26538086 C7.73266802 18.80188174 9.00998275 24.32990118 10 30 C6.47051709 31.66670026 4.71727674 32.13583456 1 31 C0.32678716 28.75194998 -0.33834123 26.50147776 -1 24.25 C-1.37125 22.99703125 -1.7425 21.7440625 -2.125 20.453125 C-3 17 -3 17 -3 13 C-4.65 13 -6.3 13 -8 13 C-9.11954199 16.35862597 -8.94588779 16.74052703 -7.625 19.8125 C-6.25497869 23.19689055 -5.45517383 26.35860937 -5 30 C-8.22791555 32.1519437 -9.28400809 32.20086443 -13 32 C-13 31.01 -13 30.02 -13 29 C-13.66 29 -14.32 29 -15 29 C-15.73832608 24.67551867 -16.39174965 20.34464536 -17 16 C-19.31 16.99 -21.62 17.98 -24 19 C-23.81300537 19.5347998 -23.62601074 20.06959961 -23.43334961 20.62060547 C-22.59361799 23.03611354 -21.76544193 25.45542692 -20.9375 27.875 C-20.64294922 28.71675781 -20.34839844 29.55851562 -20.04492188 30.42578125 C-19.77099609 31.23144531 -19.49707031 32.03710938 -19.21484375 32.8671875 C-18.95823975 33.61081543 -18.70163574 34.35444336 -18.43725586 35.12060547 C-18 37 -18 37 -19 39 C-21.9375 40.1875 -21.9375 40.1875 -25 41 C-28.84280792 39.07859604 -29.41897417 33.70780961 -30.7578125 29.796875 C-35 16.83018868 -35 16.83018868 -35 11 C-25.6121749 7.99436117 -16.20217161 5.158835 -6.67822266 2.61254883 C-3.04549259 1.8782334 -3.04549259 1.8782334 0 0 Z " fill="#1A1A1A" transform="translate(402,188)"/>
<path d="M0 0 C0.625 2.875 0.625 2.875 1 6 C-1 8 -1 8 -4.3125 9.375 C-7.71338378 10.79499323 -10.36260077 12.36260077 -13 15 C-13.87943404 17.63460948 -13.87943404 17.63460948 -14 20 C-10.07685373 18.86664663 -7.7958735 17.91236822 -5 15 C0.27724883 11.43785704 5.81838896 10.95561823 12 12 C15.125 14.4375 15.125 14.4375 17 17 C17.33 17.33 17.66 17.66 18 18 C18.16796875 19.92578125 18.16796875 19.92578125 18.1875 22.3125 C18.20167969 23.09238281 18.21585937 23.87226563 18.23046875 24.67578125 C17.97984413 27.2032668 17.26373772 28.81718031 16 31 C15.34 31 14.68 31 14 31 C13.76796875 31.57234375 13.5359375 32.1446875 13.296875 32.734375 C11.67610718 35.56583685 9.77184493 37.18667233 7.25 39.25 C6.40953125 39.95640625 5.5690625 40.6628125 4.703125 41.390625 C1.47380916 43.31328125 -0.30185968 43.54712213 -4 43 C-6.21436726 41.26970372 -7.35157314 39.32719086 -9 37 C-7.25048432 36.04078278 -5.50036756 35.08266183 -3.75 34.125 C-2.77546875 33.59132813 -1.8009375 33.05765625 -0.796875 32.5078125 C0.88127956 31.60310906 2.5801198 30.73345847 4.3125 29.9375 C6.22123344 29.12099931 6.22123344 29.12099931 6.75 26.875 C6.87375 25.946875 6.87375 25.946875 7 25 C7.66 25 8.32 25 9 25 C8.67 23.35 8.34 21.7 8 20 C7.01 20 6.02 20 5 20 C5 20.66 5 21.32 5 22 C3.25048432 22.95921722 1.50036756 23.91733817 -0.25 24.875 C-1.22453125 25.40867187 -2.1990625 25.94234375 -3.203125 26.4921875 C-4.12609375 26.98976563 -5.0490625 27.48734375 -6 28 C-6.69609375 28.39703125 -7.3921875 28.7940625 -8.109375 29.203125 C-11.44063215 30.60720859 -14.59718934 29.98318915 -18 29 C-20.5 27.0625 -20.5 27.0625 -22 25 C-22 24.34 -22 23.68 -22 23 C-22.66 22.67 -23.32 22.34 -24 22 C-24.75166682 16.11194322 -23.29878268 12.93699613 -19.85546875 8.15234375 C-14.0008478 1.36098345 -8.94511584 -1.51898193 0 0 Z " fill="#151515" transform="translate(354,335)"/>
<path d="M0 0 C2.47265625 2.43359375 2.47265625 2.43359375 5.0625 5.4375 C8.67988045 9.61362953 8.67988045 9.61362953 13 13 C17 17.57142857 17 17.57142857 17 20 C17.66 20 18.32 20 19 20 C19 20.66 19 21.32 19 22 C19.66 22 20.32 22 21 22 C25 26.35294118 25 26.35294118 25 30 C21.04 31.485 21.04 31.485 17 33 C16.236875 32.195625 15.47375 31.39125 14.6875 30.5625 C12.20569102 27.83200976 12.20569102 27.83200976 9 27 C6.80938387 27.68181089 6.80938387 27.68181089 4.5625 28.8125 C3.41974609 29.34810547 3.41974609 29.34810547 2.25390625 29.89453125 C0.16422092 30.9194549 -1.91822128 31.95911064 -4 33 C-4 36.3 -4 39.6 -4 43 C-10.93359375 43.87890625 -10.93359375 43.87890625 -13 44 C-14 43 -14 43 -14.11352539 39.30639648 C-14.11336624 37.66128708 -14.10766988 36.01617269 -14.09765625 34.37109375 C-14.0962413 33.50686295 -14.09482635 32.64263214 -14.09336853 31.75221252 C-14.08775239 28.98060708 -14.07519719 26.2090812 -14.0625 23.4375 C-14.05748708 21.5631522 -14.05292381 19.68880315 -14.04882812 17.81445312 C-14.03777772 13.20960456 -14.0205023 8.60481579 -14 4 C-12.42466914 3.13116294 -10.83935491 2.28040932 -9.25 1.4375 C-8.36828125 0.96183594 -7.4865625 0.48617188 -6.578125 -0.00390625 C-3.74635192 -1.0980004 -2.74156679 -1.20752073 0 0 Z M-4 11 C-5.28612676 12.05978933 -5.28612676 12.05978933 -5.09765625 14.50390625 C-5.08605469 15.51324219 -5.07445312 16.52257812 -5.0625 17.5625 C-5.05347656 18.57441406 -5.04445313 19.58632813 -5.03515625 20.62890625 C-5.02355469 21.41136719 -5.01195312 22.19382812 -5 23 C-2.03 22.01 0.94 21.02 4 20 C2.26684515 16.5336903 1.68895229 15.45222353 -1.125 13.25 C-2.07375 12.5075 -3.0225 11.765 -4 11 Z " fill="#181818" transform="translate(306,366)"/>
<path d="M0 0 C-0.51903015 4.93078644 -2.12849085 9.05249433 -4.01171875 13.5859375 C-5.1434748 16.35046414 -6.10063093 19.15199793 -7 22 C-5.88625 22.433125 -5.88625 22.433125 -4.75 22.875 C-2.43260203 23.82302644 -0.22082885 24.84845911 2 26 C2 26.66 2 27.32 2 28 C2.7425 28.268125 3.485 28.53625 4.25 28.8125 C6.86636554 29.94229421 8.80187111 31.20893202 11 33 C10.67 33.99 10.34 34.98 10 36 C7.10980773 37.30210767 4.15488 37.81258139 1 38 C-2.5625 36.625 -2.5625 36.625 -5 35 C-5 34.34 -5 33.68 -5 33 C-6.98 32.34 -8.96 31.68 -11 31 C-11.29132813 31.90363281 -11.58265625 32.80726562 -11.8828125 33.73828125 C-12.29273438 34.91777344 -12.70265625 36.09726563 -13.125 37.3125 C-13.51945312 38.48425781 -13.91390625 39.65601563 -14.3203125 40.86328125 C-16.35877603 44.66999338 -17.98075107 45.576516 -22 47 C-24.875 46.6875 -24.875 46.6875 -27 46 C-24.80962826 39.27954125 -22.44234339 32.63275997 -20 26 C-24.13116786 21.66908337 -28.26340197 18.91219934 -34 17 C-35.75 15.75 -35.75 15.75 -37 14 C-36.6875 11.3125 -36.6875 11.3125 -36 9 C-28.02962206 7.5587334 -28.02962206 7.5587334 -23.9375 9.3125 C-23.298125 9.869375 -22.65875 10.42625 -22 11 C-22 11.66 -22 12.32 -22 13 C-20.02 13.66 -18.04 14.32 -16 15 C-15.35004703 13.58521865 -14.70521278 12.16808513 -14.0625 10.75 C-13.70285156 9.96109375 -13.34320313 9.1721875 -12.97265625 8.359375 C-11.94542231 6.07255919 -11.94542231 6.07255919 -11.54296875 3.81640625 C-11 2 -11 2 -8.25 0.1875 C-4.83847682 -1.05901808 -3.39270125 -1.09763864 0 0 Z " fill="#181818" transform="translate(218,89)"/>
<path d="M0 0 C0 0.66 0 1.32 0 2 C0.66 2 1.32 2 2 2 C2.33 3.65 2.66 5.3 3 7 C2.236875 7.556875 1.47375 8.11375 0.6875 8.6875 C-2.01509391 11.01298778 -3.22043258 12.95990566 -5 16 C-6.64694485 17.68615782 -8.31126121 19.35570171 -10 21 C-10.33 21.66 -10.66 22.32 -11 23 C-11.66 23 -12.32 23 -13 23 C-12.814375 23.928125 -12.62875 24.85625 -12.4375 25.8125 C-12 29 -12 29 -13 32 C-12.34 32 -11.68 32 -11 32 C-11 32.66 -11 33.32 -11 34 C-9.56589632 34.24954005 -8.12739928 34.47392642 -6.6875 34.6875 C-5.88699219 34.81511719 -5.08648437 34.94273437 -4.26171875 35.07421875 C-1.91056775 35.23817276 -1.91056775 35.23817276 -0.33203125 33.51953125 C0.10753906 33.01808594 0.54710937 32.51664063 1 32 C1.66 32 2.32 32 3 32 C3.2475 31.46375 3.495 30.9275 3.75 30.375 C6.65318956 24.85893984 10.21247696 18.67096605 16.125 16.0625 C18 16 18 16 21 18 C21 18.66 21 19.32 21 20 C21.66 20 22.32 20 23 20 C23 20.99 23 21.98 23 23 C22.34 23 21.68 23 21 23 C21 23.66 21 24.32 21 25 C20.34 25 19.68 25 19 25 C18.7525 25.7425 18.505 26.485 18.25 27.25 C16.9016807 30.21630245 15.35816151 31.79397794 13 34 C12.505 34.99 12.505 34.99 12 36 C11.34 36 10.68 36 10 36 C10 36.66 10 37.32 10 38 C9.34 38 8.68 38 8 38 C8 38.99 8 39.98 8 41 C1.04983123 44.99849216 -4.15617797 45.34884416 -12 44 C-12 43.34 -12 42.68 -12 42 C-12.59425781 41.896875 -13.18851562 41.79375 -13.80078125 41.6875 C-17.74845224 40.45341458 -19.91824164 37.46317209 -22 34 C-24.02584489 26.65013592 -22.45712486 21.61363016 -19 15 C-18.34 15 -17.68 15 -17 15 C-17 14.34 -17 13.68 -17 13 C-16.34 13 -15.68 13 -15 13 C-14.690625 12.38125 -14.38125 11.7625 -14.0625 11.125 C-13.375 9.75 -12.6875 8.375 -12 7 C-11.34 7 -10.68 7 -10 7 C-9.67 5.68 -9.34 4.36 -9 3 C-8.34 3 -7.68 3 -7 3 C-6.67 2.01 -6.34 1.02 -6 0 C-3.50907189 -1.24546405 -2.58919267 -0.7767578 0 0 Z " fill="#151515" transform="translate(347,115)"/>
<path d="M0 0 C1.22203125 -0.00483398 1.22203125 -0.00483398 2.46875 -0.00976562 C8.4824953 0.0449953 8.4824953 0.0449953 10.75 2.3125 C11.01991906 5.00089385 10.83737357 7.60391936 10.75 10.3125 C10.21375 10.15265625 9.6775 9.9928125 9.125 9.828125 C6.29373338 9.21344212 3.64676082 9.10595141 0.75 9.0625 C-0.28125 9.03671875 -1.3125 9.0109375 -2.375 8.984375 C-5.61092773 9.35369284 -6.81298402 10.24538823 -9.25 12.3125 C-9.91 12.3125 -10.57 12.3125 -11.25 12.3125 C-11.415 13.55 -11.58 14.7875 -11.75 16.0625 C-11.8428125 16.75859375 -11.935625 17.4546875 -12.03125 18.171875 C-12.31777357 20.61708395 -12.31777357 20.61708395 -12.25 24.3125 C-11.59 24.6425 -10.93 24.9725 -10.25 25.3125 C-9.625 27.375 -9.625 27.375 -9.25 29.3125 C-1.31149935 31.52457659 5.17018356 30.20004912 12.75 27.3125 C13.245 31.7675 13.245 31.7675 13.75 36.3125 C13.03972656 36.53164063 12.32945312 36.75078125 11.59765625 36.9765625 C8.83722567 37.92896912 6.29987763 38.88526474 3.75 40.3125 C2.52126231 43.34128466 2.52126231 43.34128466 2.75 46.3125 C2.42 46.9725 2.09 47.6325 1.75 48.3125 C1.09 48.3125 0.43 48.3125 -0.25 48.3125 C-0.58 49.3025 -0.91 50.2925 -1.25 51.3125 C-4.715 51.8075 -4.715 51.8075 -8.25 52.3125 C-9.375 48.5625 -9.375 48.5625 -8.25 46.3125 C-7.59 46.3125 -6.93 46.3125 -6.25 46.3125 C-5.92 44.9925 -5.59 43.6725 -5.25 42.3125 C-3.6 42.3125 -1.95 42.3125 -0.25 42.3125 C-0.25 41.6525 -0.25 40.9925 -0.25 40.3125 C-0.96542969 40.51746094 -1.68085938 40.72242188 -2.41796875 40.93359375 C-5.79883068 41.38592976 -7.46648023 40.7372487 -10.5625 39.375 C-11.88701172 38.80458984 -11.88701172 38.80458984 -13.23828125 38.22265625 C-13.90214844 37.92230469 -14.56601563 37.62195313 -15.25 37.3125 C-15.25 36.6525 -15.25 35.9925 -15.25 35.3125 C-15.91 35.3125 -16.57 35.3125 -17.25 35.3125 C-20.87873688 28.47697239 -23.56421529 21.04334046 -21.7734375 13.234375 C-19.85239275 8.37898716 -17.10084361 4.4851719 -12.69140625 1.69140625 C-8.31143719 -0.06356433 -4.66519358 -0.09405632 0 0 Z " fill="#111111" transform="translate(269.25,374.6875)"/>
<path d="M0 0 C1.4140625 1.35546875 1.4140625 1.35546875 2.625 3.1875 C3.25728516 4.14076172 3.25728516 4.14076172 3.90234375 5.11328125 C5.18890865 7.32470776 6.08765387 9.61386398 7 12 C7.66 12.33 8.32 12.66 9 13 C11.39483236 16.86788018 13.86853162 21.39860679 14 26 C12.875 27.875 12.875 27.875 11 29 C8.3125 28.6875 8.3125 28.6875 6 28 C6 27.34 6 26.68 6 26 C5.01 25.67 4.02 25.34 3 25 C1.83203125 23.22265625 1.83203125 23.22265625 0.8125 21.0625 C0.46832031 20.35222656 0.12414062 19.64195312 -0.23046875 18.91015625 C-1 17 -1 17 -1 15 C-2.32 14.34 -3.64 13.68 -5 13 C-5.99 13.99 -6.98 14.98 -8 16 C-7.41089844 16.81984375 -6.82179688 17.6396875 -6.21484375 18.484375 C-5.46332031 19.56203125 -4.71179688 20.6396875 -3.9375 21.75 C-3.18339844 22.81734375 -2.42929688 23.8846875 -1.65234375 24.984375 C0 28 0 28 -0.09375 30.3125 C-1.452456 32.84250427 -3.34637021 33.18349853 -6 34 C-8.33833155 31.87424405 -9.7755121 29.91993269 -11 27 C-11 26.34 -11 25.68 -11 25 C-11.66 25 -12.32 25 -13 25 C-14.625 22.5 -14.625 22.5 -16 20 C-17.32 20.33 -18.64 20.66 -20 21 C-20 21.66 -20 22.32 -20 23 C-26.625 27 -26.625 27 -30 27 C-34 22.77142857 -34 22.77142857 -34 19 C-32.46363947 16.97847299 -31.26947794 16.09993555 -28.8828125 15.21484375 C-25.0074491 13.5817299 -21.60288018 11.3800611 -18.0625 9.125 C-17.02706055 8.47337891 -17.02706055 8.47337891 -15.97070312 7.80859375 C-12.83626328 5.82988575 -9.76601467 3.83314852 -6.74609375 1.6796875 C-4 0 -4 0 0 0 Z " fill="#171717" transform="translate(134,304)"/>
<path d="M0 0 C2.875 0.1875 2.875 0.1875 6 1 C7.375 3.5625 7.375 3.5625 8 6 C7.01 6.33 6.02 6.66 5 7 C3.92635777 9.38427946 3.92635777 9.38427946 3.25 12.25 C2.98703125 13.20390625 2.7240625 14.1578125 2.453125 15.140625 C1.82233288 19.12114079 2.27772387 21.81809361 4.375 25.25 C5.98103403 27.26035102 5.98103403 27.26035102 9 28 C9 28.66 9 29.32 9 30 C10.6396875 29.7525 10.6396875 29.7525 12.3125 29.5 C16 29 16 29 19 29 C19.33 28.34 19.66 27.68 20 27 C21 25.33333333 22 23.66666667 23 22 C24.35091528 19.29816945 24.33858058 16.88191794 24.5625 13.875 C24.64628906 12.77929688 24.73007813 11.68359375 24.81640625 10.5546875 C24.90728516 9.29011719 24.90728516 9.29011719 25 8 C31.875 8.875 31.875 8.875 33 10 C33.55127196 17.31495481 33.63155584 23.54390073 30 30 C29.319375 31.36125 29.319375 31.36125 28.625 32.75 C25.87508002 36.55758151 22.49073189 38.06338553 18 39 C11.61237517 39.64621885 4.73930626 39.05185333 -1 36 C-1.66015625 33.9375 -1.66015625 33.9375 -2 32 C-2.639375 31.7525 -3.27875 31.505 -3.9375 31.25 C-6 30 -6 30 -7.25 26.3125 C-8.84890593 18.21622178 -7.66209289 12.32418577 -4 5 C-1.75 1.875 -1.75 1.875 0 0 Z " fill="#161616" transform="translate(98,190)"/>
<path d="M0 0 C21.12 0 42.24 0 64 0 C64 0.66 64 1.32 64 2 C43.54 2 23.08 2 2 2 C2 22.46 2 42.92 2 64 C6.53621094 63.98839844 11.07242188 63.97679687 15.74609375 63.96484375 C18.61263163 63.95973677 21.47916394 63.95492299 24.34570312 63.95117188 C28.89983275 63.94518427 33.45394235 63.93808617 38.00805664 63.92456055 C41.67792544 63.9137288 45.34777278 63.90772256 49.01765633 63.90512276 C50.42074992 63.90326903 51.82384229 63.8996494 53.2269268 63.89426994 C55.1856968 63.88705581 57.1444882 63.88659191 59.10327148 63.88647461 C60.22023911 63.884254 61.33720673 63.88203339 62.48802185 63.87974548 C65 64 65 64 66 65 C66.0940067 66.96369153 66.11743381 68.93079199 66.11352539 70.89672852 C66.11341209 72.78857628 66.11341209 72.78857628 66.11329651 74.71864319 C66.1081891 76.10539794 66.10297309 77.49215229 66.09765625 78.87890625 C66.09579201 80.28995209 66.09436814 81.70099857 66.09336853 83.11204529 C66.08954379 86.83240535 66.0797139 90.5527266 66.06866455 94.27307129 C66.05665461 98.73339791 66.05204798 103.19373748 66.04621124 107.65407562 C66.0365021 114.43607744 66.01734528 121.21799403 66 128 C86.46 128 106.92 128 128 128 C128 128.33 128 128.66 128 129 C106.88 129.33 85.76 129.66 64 130 C64 108.88 64 87.76 64 66 C42.88 66 21.76 66 0 66 C0 44.22 0 22.44 0 0 Z " fill="#C3363B" transform="translate(153,217)"/>
<path d="M0 0 C0.33 0 0.66 0 1 0 C1 21.12 1 42.24 1 64 C22.12 64 43.24 64 65 64 C65 85.78 65 107.56 65 130 C43.88 130 22.76 130 1 130 C1 151.12 1 172.24 1 194 C0.67 194 0.34 194 0 194 C0 172.22 0 150.44 0 128 C20.79 128 41.58 128 63 128 C63 107.54 63 87.08 63 66 C41.88 66 20.76 66 -1 66 C-0.67 44.22 -0.34 22.44 0 0 Z " fill="#B94245" transform="translate(282,153)"/>
<path d="M0 0 C0 0.99 0 1.98 0 3 C-3 5 -3 5 -6 5 C-6 5.66 -6 6.32 -6 7 C-17.29288625 14.82421613 -30.24065844 19.63104038 -43.06494141 24.28076172 C-44.33037971 24.7511101 -45.58854406 25.24164246 -46.83740234 25.75439453 C-52.8118164 28.16675183 -58.94334516 29.38208262 -65.25 30.625 C-67.38032084 31.05412938 -69.5105338 31.4837947 -71.640625 31.9140625 C-72.57422852 32.0992041 -73.50783203 32.2843457 -74.46972656 32.47509766 C-75.97691514 32.78776221 -77.47849061 33.13557035 -78.95947266 33.55517578 C-83.87964253 34.62774691 -89.11211054 34.22841598 -94.125 34.25 C-95.33027344 34.270625 -96.53554688 34.29125 -97.77734375 34.3125 C-99.50017578 34.32023437 -99.50017578 34.32023437 -101.2578125 34.328125 C-102.83780029 34.34214355 -102.83780029 34.34214355 -104.44970703 34.35644531 C-105.29130371 34.23881836 -106.13290039 34.12119141 -107 34 C-107.66 33.01 -108.32 32.02 -109 31 C-108.02466309 30.90501221 -107.04932617 30.81002441 -106.04443359 30.7121582 C-74.27831198 28.13816246 -74.27831198 28.13816246 -44 19 C-42.17033088 18.34866148 -40.34053694 17.69758078 -38.50634766 17.05908203 C-30.88993677 14.37870232 -23.99688841 11.01472384 -17.05297852 6.89599609 C-12.16730514 4 -12.16730514 4 -10 4 C-9.67 3.34 -9.34 2.68 -9 2 C-3.56692913 -1.18897638 -3.56692913 -1.18897638 0 0 Z " fill="#282828" transform="translate(355,402)"/>
<path d="M0 0 C1.99396257 2.66083969 4 5.61242325 4 9 C4.66 9.33 5.32 9.66 6 10 C7.03432904 11.98246398 8.03238392 13.98413316 9 16 C9.66 16.99 10.32 17.98 11 19 C11 19.99 11 20.98 11 22 C11.66 22 12.32 22 13 22 C16 27.75 16 27.75 16 30 C16.66 30.33 17.32 30.66 18 31 C15.8125 33.5625 15.8125 33.5625 13 36 C10.375 36.0625 10.375 36.0625 8 35 C5.28737535 32.28737535 3.89879113 28.83766201 2.23828125 25.4140625 C0.22406684 21.48729751 -2.05907227 17.7203998 -4.31640625 13.9296875 C-9 5.77958237 -9 5.77958237 -9 2.75 C-8 1 -8 1 -5.625 -0.3125 C-3 -1 -3 -1 0 0 Z " fill="#161616" transform="translate(174,106)"/>
<path d="M0 0 C3.125 -0.1875 3.125 -0.1875 6 0 C6.33 1.32 6.66 2.64 7 4 C7.66 4 8.32 4 9 4 C9.43699219 4.81791016 9.43699219 4.81791016 9.8828125 5.65234375 C12.6210531 10.68967315 15.57443564 15.45517634 18.86328125 20.15234375 C20 22 20 22 20 24 C20.66 24 21.32 24 22 24 C23.625 26.75 23.625 26.75 25 30 C24.1875 32.375 24.1875 32.375 23 34 C22.34 34 21.68 34 21 34 C21 34.66 21 35.32 21 36 C19.68 36 18.36 36 17 36 C14 32.78571429 14 32.78571429 14 30 C13.34 29.67 12.68 29.34 12 29 C11.33333333 27.66666667 10.66666667 26.33333333 10 25 C8.7054198 23.17043555 7.37440829 21.37421675 6.0234375 19.5859375 C5 18 5 18 5 16 C4.34 15.67 3.68 15.34 3 15 C0 10.5 0 10.5 0 8 C-0.99 7.67 -1.98 7.34 -3 7 C-2.38722388 4.03824877 -1.74627478 2.61941217 0 0 Z " fill="#1D1D1D" transform="translate(320,354)"/>
<path d="M0 0 C1.21300781 0.19335938 2.42601562 0.38671875 3.67578125 0.5859375 C4.66239746 0.73881226 4.66239746 0.73881226 5.66894531 0.89477539 C7.77932886 1.22979254 9.88351115 1.59239799 11.98828125 1.9609375 C12.67809082 2.07775879 13.36790039 2.19458008 14.07861328 2.31494141 C27.01860125 4.52197403 38.95733694 7.62716891 50.98828125 12.9609375 C52.15746094 13.46109375 53.32664062 13.96125 54.53125 14.4765625 C55.69269531 14.98703125 56.85414063 15.4975 58.05078125 16.0234375 C59.11425781 16.48878906 60.17773438 16.95414063 61.2734375 17.43359375 C64.06450082 19.00381786 65.39062073 20.21340367 66.98828125 22.9609375 C66.98828125 23.6209375 66.98828125 24.2809375 66.98828125 24.9609375 C62.51452646 23.56487217 58.13193538 22.09169147 53.86328125 20.1484375 C52.23869517 19.41834907 50.61364388 18.68929549 48.98828125 17.9609375 C47.95574219 17.49429688 46.92320312 17.02765625 45.859375 16.546875 C35.74508363 12.21693687 25.50820934 9.79127148 14.75830078 7.54443359 C10.36759143 6.61954417 5.9915044 5.63039465 1.61328125 4.6484375 C-0.92804871 4.08440365 -3.46987517 3.52265355 -6.01171875 2.9609375 C-4.11860343 0.26820308 -3.35889032 -0.04356537 0 0 Z " fill="#252525" transform="translate(270.01171875,64.0390625)"/>
<path d="M0 0 C2.475 0.495 2.475 0.495 5 1 C8.53151455 16.80609909 13.59386484 47.39741665 5 62 C4.01 61.34 3.02 60.68 2 60 C1.6526947 58.19674683 1.6526947 58.19674683 1.69116211 55.98779297 C1.69784409 55.15867401 1.70452606 54.32955505 1.71141052 53.47531128 C1.73316849 52.57338043 1.75492645 51.67144958 1.77734375 50.7421875 C1.78633194 49.8063382 1.79532013 48.87048889 1.80458069 47.90628052 C1.83467773 44.89548298 1.8843174 41.88547215 1.9375 38.875 C2.15206825 25.71840822 2.12309985 13.01680655 0 0 Z " fill="#3F3F3F" transform="translate(429,217)"/>
<path d="M0 0 C0.33 0 0.66 0 1 0 C1 21.12 1 42.24 1 64 C22.12 64 43.24 64 65 64 C64.67 85.12 64.34 106.24 64 128 C63.67 128 63.34 128 63 128 C63 107.54 63 87.08 63 66 C41.88 66 20.76 66 -1 66 C-0.67 44.22 -0.34 22.44 0 0 Z " fill="#C63E44" transform="translate(282,153)"/>
<path d="M0 0 C21.12 0 42.24 0 64 0 C64 0.66 64 1.32 64 2 C43.54 2 23.08 2 2 2 C2 22.79 2 43.58 2 65 C1.34 65 0.68 65 0 65 C0 43.55 0 22.1 0 0 Z " fill="#B7272F" transform="translate(153,217)"/>
<path d="M0 0 C4.97209562 1.76429199 9.43438061 4.3939166 14 7 C14 7.66 14 8.32 14 9 C14.54140625 9.09410156 15.0828125 9.18820313 15.640625 9.28515625 C18.69771088 10.21139253 21.05769005 11.7245356 23.75 13.4375 C24.73484375 14.05496094 25.7196875 14.67242187 26.734375 15.30859375 C27.48203125 15.86675781 28.2296875 16.42492187 29 17 C29 17.66 29 18.32 29 19 C29.61875 19.309375 30.2375 19.61875 30.875 19.9375 C32.25 20.625 33.625 21.3125 35 22 C35 22.66 35 23.32 35 24 C35.53625 24.226875 36.0725 24.45375 36.625 24.6875 C40.74700263 26.96544882 44.46706157 29.40118471 46 34 C45.34 34 44.68 34 44 34 C43.67 34.99 43.34 35.98 43 37 C42.46890625 36.43410156 41.9378125 35.86820313 41.390625 35.28515625 C40.33101563 34.18494141 40.33101563 34.18494141 39.25 33.0625 C38.55390625 32.33160156 37.8578125 31.60070312 37.140625 30.84765625 C34.93423802 28.94323829 33.73750166 28.66057105 31 28 C30.67 27.01 30.34 26.02 30 25 C28.34051852 23.98812105 26.67419438 22.9873454 25 22 C25 21.34 25 20.68 25 20 C24.195625 19.731875 23.39125 19.46375 22.5625 19.1875 C21.716875 18.795625 20.87125 18.40375 20 18 C19.67 17.01 19.34 16.02 19 15 C17.24762539 14.45362053 17.24762539 14.45362053 15 14 C12.76265595 13.02219779 10.55594391 11.97285664 8.375 10.875 C7.22773438 10.31554687 6.08046875 9.75609375 4.8984375 9.1796875 C1.27438505 6.45432191 0.80793756 4.37545406 0 0 Z " fill="#313131" transform="translate(335,84)"/>
<path d="M0 0 C-0.66 0.66 -1.32 1.32 -2 2 C-1.01 2.66 -0.02 3.32 1 4 C-0.12905762 4.02505615 -1.25811523 4.0501123 -2.42138672 4.07592773 C-6.65211319 4.17084259 -10.88270721 4.27085008 -15.11328125 4.37231445 C-16.93649168 4.41534815 -18.7597343 4.457042 -20.58300781 4.49731445 C-23.21949928 4.55579085 -25.85583338 4.6192525 -28.4921875 4.68359375 C-29.29365204 4.70030624 -30.09511658 4.71701874 -30.92086792 4.73423767 C-36.64967073 4.88071758 -42.30567037 5.36204042 -48 6 C-48.33 4.68 -48.66 3.36 -49 2 C-33.07605691 -0.73540127 -16.04231628 -3.27717828 0 0 Z " fill="#383838" transform="translate(267,64)"/>
<path d="M0 0 C-1 3 -1 3 -4 5 C-6.11303711 5.57836914 -6.11303711 5.57836914 -8.52734375 6.03515625 C-9.40197266 6.20466797 -10.27660156 6.37417969 -11.17773438 6.54882812 C-12.08845703 6.71833984 -12.99917969 6.88785156 -13.9375 7.0625 C-15.73842273 7.40681288 -17.53920928 7.75183903 -19.33984375 8.09765625 C-20.13769287 8.24726807 -20.93554199 8.39687988 -21.75756836 8.55102539 C-23.95877065 8.96109661 -23.95877065 8.96109661 -25.91577148 9.54370117 C-30.85229336 10.62445078 -36.09438553 10.22833966 -41.125 10.25 C-42.33027344 10.270625 -43.53554688 10.29125 -44.77734375 10.3125 C-46.50017578 10.32023437 -46.50017578 10.32023437 -48.2578125 10.328125 C-49.83780029 10.34214355 -49.83780029 10.34214355 -51.44970703 10.35644531 C-52.29130371 10.23881836 -53.13290039 10.12119141 -54 10 C-54.66 9.01 -55.32 8.02 -56 7 C-54.98800537 6.89453857 -53.97601074 6.78907715 -52.93334961 6.68041992 C-49.10250186 6.27929139 -45.27269916 5.86881592 -41.44311523 5.45581055 C-39.79982287 5.27984072 -38.1562731 5.10625492 -36.51245117 4.93530273 C-26.91547445 3.9354344 -17.52758181 2.67505126 -8.10375977 0.5793457 C-5.30733752 0.05736741 -2.83324876 -0.11574433 0 0 Z " fill="#2C2C2C" transform="translate(302,426)"/>
<path d="M0 0 C1.74796875 0.19916016 1.74796875 0.19916016 3.53125 0.40234375 C17.00722167 1.87462566 30.45355171 2.56856211 44 3 C44 3.33 44 3.66 44 4 C40.37 4.33 36.74 4.66 33 5 C34.87824891 6.87824891 38.03935276 6.39102397 40.5625 6.5625 C41.76003906 6.64628906 42.95757812 6.73007812 44.19140625 6.81640625 C45.11824219 6.87699219 46.04507813 6.93757813 47 7 C47 7.33 47 7.66 47 8 C10.22650664 8.32183615 10.22650664 8.32183615 2 4 C0.73046875 1.89453125 0.73046875 1.89453125 0 0 Z " fill="#4D4D4D" transform="translate(214,429)"/>
<path d="M0 0 C-0.02734375 1.80859375 -0.02734375 1.80859375 -1 4 C-3.54877511 5.22785515 -5.89744692 6.17574243 -8.5625 7.0625 C-9.59987305 7.42698242 -9.59987305 7.42698242 -10.65820312 7.79882812 C-12.05853365 8.29083615 -13.46175094 8.77470175 -14.86767578 9.25048828 C-17.05413682 10.01902909 -19.19054624 10.87978271 -21.33984375 11.74609375 C-25 13 -25 13 -28 12 C-27.72314453 10.09985352 -27.72314453 10.09985352 -27 8 C-24.26413729 6.77574634 -21.71949409 5.81986397 -18.875 4.9375 C-17.37164772 4.44891051 -15.86903293 3.9580456 -14.3671875 3.46484375 C-13.63338867 3.22878418 -12.89958984 2.99272461 -12.14355469 2.74951172 C-10.07297824 2.02551745 -8.12198273 1.1752447 -6.1328125 0.25390625 C-3 -1 -3 -1 0 0 Z " fill="#2C2C2C" transform="translate(327,417)"/>
<path d="M0 0 C0.9746521 0.14284424 0.9746521 0.14284424 1.96899414 0.28857422 C9.45326987 1.41884895 16.88742044 2.8489495 24.3125 4.3125 C23.6525 5.6325 22.9925 6.9525 22.3125 8.3125 C16.16042542 7.61860322 10.13268542 6.58633522 4.0625 5.375 C3.17820312 5.20548828 2.29390625 5.03597656 1.3828125 4.86132812 C0.52945312 4.69181641 -0.32390625 4.52230469 -1.203125 4.34765625 C-1.96915039 4.1969165 -2.73517578 4.04617676 -3.52441406 3.89086914 C-5.77336372 3.28954163 -7.64702589 2.42224678 -9.6875 1.3125 C-5.85353754 -1.24347497 -4.48952889 -0.67271368 0 0 Z " fill="#292929" transform="translate(273.6875,64.6875)"/>
<path d="M0 0 C-0.33 0.99 -0.66 1.98 -1 3 C-2.00160156 3.19335938 -3.00320312 3.38671875 -4.03515625 3.5859375 C-5.37763508 3.84880049 -6.72008127 4.11183026 -8.0625 4.375 C-9.04766602 4.56449219 -9.04766602 4.56449219 -10.05273438 4.7578125 C-13.36677466 5.41082536 -16.55936021 6.16047219 -19.8125 7.09375 C-22.74221074 7.92670698 -24.98220316 8.18289678 -28 8 C-28 6.68 -28 5.36 -28 4 C-24.9595402 3.18293833 -21.91743317 2.3721798 -18.875 1.5625 C-18.0190625 1.33240234 -17.163125 1.10230469 -16.28125 0.86523438 C-3.70747722 -2.47165148 -3.70747722 -2.47165148 0 0 Z " fill="#212121" transform="translate(219,68)"/>
<path d="M0 0 C1.33835107 3.23434841 0.89644829 4.41420686 0 8 C-6.435 8.495 -6.435 8.495 -13 9 C-15 5 -15 5 -15 2 C-13.06524329 1.46906676 -11.12706845 0.95057683 -9.1875 0.4375 C-8.10855469 0.14746094 -7.02960938 -0.14257812 -5.91796875 -0.44140625 C-3 -1 -3 -1 0 0 Z " fill="#282828" transform="translate(239,99)"/>
<path d="M0 0 C0.33 0.66 0.66 1.32 1 2 C1.66 2 2.32 2 3 2 C3 3.32 3 4.64 3 6 C2.01 6 1.02 6 0 6 C0 6.66 0 7.32 0 8 C-3.46153846 11 -3.46153846 11 -6 11 C-6.33 11.99 -6.66 12.98 -7 14 C-8.84765625 15.16796875 -8.84765625 15.16796875 -11.0625 16.1875 C-11.79597656 16.53167969 -12.52945312 16.87585938 -13.28515625 17.23046875 C-13.85105469 17.48441406 -14.41695313 17.73835938 -15 18 C-15.33 17.34 -15.66 16.68 -16 16 C-16.99 16 -17.98 16 -19 16 C-19 15.34 -19 14.68 -19 14 C-18.01 14 -17.02 14 -16 14 C-16 13.34 -16 12.68 -16 12 C-14.02 11.34 -12.04 10.68 -10 10 C-10 9.34 -10 8.68 -10 8 C-6.53846154 5 -6.53846154 5 -4 5 C-3.67 4.01 -3.34 3.02 -3 2 C-2.34 2 -1.68 2 -1 2 C-0.67 1.34 -0.34 0.68 0 0 Z " fill="#3C3C3C" transform="translate(370,386)"/>
<path d="M0 0 C0.886875 0.4125 1.77375 0.825 2.6875 1.25 C1.6875 3.25 1.6875 3.25 -0.0625 4.0625 C-5.53067979 6.94848378 -9.38505679 12.56676016 -13.3125 17.25 C-15.2925 16.59 -17.2725 15.93 -19.3125 15.25 C-18.6525 14.92 -17.9925 14.59 -17.3125 14.25 C-16.9825 13.26 -16.6525 12.27 -16.3125 11.25 C-11.99431818 6.47727273 -11.99431818 6.47727273 -8.3125 5.25 C-8.3125 4.59 -8.3125 3.93 -8.3125 3.25 C-4.31940846 -0.97797927 -4.31940846 -0.97797927 0 0 Z " fill="#333333" transform="translate(131.3125,108.75)"/>
<path d="M0 0 C0.66 0.33 1.32 0.66 2 1 C3.62579377 10.31136435 2.66348613 19.62953436 2 29 C0.0546875 28.40625 0.0546875 28.40625 -2 27 C-4.13707573 17.86215895 -2.92609327 8.77827981 0 0 Z " fill="#1D1D1D" transform="translate(66,225)"/>
<path d="M0 0 C2.64 0 5.28 0 8 0 C8.80967438 2.91482778 9.21845993 4.46113217 8.0625 7.3125 C7.711875 7.869375 7.36125 8.42625 7 9 C6.34 9 5.68 9 5 9 C4.67 9.99 4.34 10.98 4 12 C1.69 12.33 -0.62 12.66 -3 13 C-4.125 9.25 -4.125 9.25 -3 7 C-2.34 7 -1.68 7 -1 7 C-0.67 5.68 -0.34 4.36 0 3 C1.65 3 3.3 3 5 3 C5 2.34 5 1.68 5 1 C3.35 1.33 1.7 1.66 0 2 C0 1.34 0 0.68 0 0 Z " fill="#2E2E2E" transform="translate(264,414)"/>
<path d="M0 0 C0.33 0 0.66 0 1 0 C1.03738281 0.77085937 1.07476562 1.54171875 1.11328125 2.3359375 C1.17902344 3.33882812 1.24476562 4.34171875 1.3125 5.375 C1.37050781 6.37273437 1.42851563 7.37046875 1.48828125 8.3984375 C1.65714844 9.25695312 1.82601562 10.11546875 2 11 C2.99 11.66 3.98 12.32 5 13 C5.58203125 15.4609375 5.58203125 15.4609375 5.8125 18.375 C5.90144531 19.33148438 5.99039063 20.28796875 6.08203125 21.2734375 C5.99667463 24.110529 5.46845585 25.60738082 4 28 C3.01 27.67 2.02 27.34 1 27 C-0.20484722 21.36473035 -0.1129643 15.85463885 -0.0625 10.125 C-0.05798828 9.15046875 -0.05347656 8.1759375 -0.04882812 7.171875 C-0.03710906 4.78118566 -0.02070219 2.3906256 0 0 Z " fill="#404040" transform="translate(63,241)"/>
<path d="M0 0 C0.66 0.33 1.32 0.66 2 1 C1.55397709 7.69034366 -1.07345542 13.02812122 -4 19 C-5.32 18.34 -6.64 17.68 -8 17 C-7.37182572 13.42966253 -6.44287691 10.18892108 -5.125 6.8125 C-4.79757812 5.95269531 -4.47015625 5.09289062 -4.1328125 4.20703125 C-3 2 -3 2 0 0 Z " fill="#252525" transform="translate(421,316)"/>
<path d="M0 0 C2.475 0.495 2.475 0.495 5 1 C6.40454548 7.11980533 7.23268915 12.71739294 7 19 C5.68 19.33 4.36 19.66 3 20 C2.49875991 16.85436294 1.99921578 13.70845891 1.5 10.5625 C1.35691406 9.66466797 1.21382813 8.76683594 1.06640625 7.84179688 C0.93105469 6.98779297 0.79570312 6.13378906 0.65625 5.25390625 C0.53056641 4.46314697 0.40488281 3.6723877 0.27539062 2.85766602 C0 1 0 1 0 0 Z " fill="#393939" transform="translate(429,217)"/>
<path d="M0 0 C5.77595949 0.7452851 11.96955266 2.90802395 16.0625 7.125 C17 9 17 9 17 11 C11.00067626 9.1668733 5.55079437 6.92678249 0 4 C0 2.68 0 1.36 0 0 Z " fill="#232323" transform="translate(320,78)"/>
<path d="M0 0 C2.125 0.375 2.125 0.375 4 1 C3.67 2.32 3.34 3.64 3 5 C2.34 5 1.68 5 1 5 C0.67 5.99 0.34 6.98 0 8 C-0.99 9.485 -0.99 9.485 -2 11 C-2.66 11 -3.32 11 -4 11 C-4.66 12.32 -5.32 13.64 -6 15 C-7.32 14.01 -8.64 13.02 -10 12 C-8.7260411 9.96166576 -7.38938077 7.96147874 -6 6 C-5.34 6 -4.68 6 -4 6 C-3.71125 5.38125 -3.4225 4.7625 -3.125 4.125 C-2 2 -2 2 0 0 Z " fill="#282828" transform="translate(112,124)"/>
<path d="M0 0 C2.22990727 0.06034932 4.4590536 0.1492275 6.6875 0.25 C7.92886719 0.29640625 9.17023438 0.3428125 10.44921875 0.390625 C14.43875608 1.07529807 16.18611639 2.13769392 19 5 C19 5.66 19 6.32 19 7 C12.85845775 6.41509121 6.99320151 5.45933748 1 4 C0.67 2.68 0.34 1.36 0 0 Z " fill="#202020" transform="translate(197,426)"/>
<path d="M0 0 C0.66 0.33 1.32 0.66 2 1 C2 1.66 2 2.32 2 3 C2.99 3.33 3.98 3.66 5 4 C6.640625 5.5234375 6.640625 5.5234375 8.25 7.375 C8.79140625 7.98085937 9.3328125 8.58671875 9.890625 9.2109375 C10.25671875 9.80132812 10.6228125 10.39171875 11 11 C10.67 11.99 10.34 12.98 10 14 C5.26180667 13.29804543 2.31935697 10.45584217 -0.8125 7 C-2 5 -2 5 -2 1 C-1.34 0.67 -0.68 0.34 0 0 Z " fill="#272727" transform="translate(381,117)"/>
<path d="M0 0 C0 0.99 0 1.98 0 3 C-3.54012525 4.77006262 -7.60068119 4.22716358 -11.5 4.25 C-12.38042969 4.270625 -13.26085937 4.29125 -14.16796875 4.3125 C-15.00972656 4.31765625 -15.85148438 4.3228125 -16.71875 4.328125 C-17.49154297 4.3374707 -18.26433594 4.34681641 -19.06054688 4.35644531 C-19.70056641 4.23881836 -20.34058594 4.12119141 -21 4 C-21.66 3.01 -22.32 2.02 -23 1 C-15.30881404 0.24833087 -7.72772107 -0.13690844 0 0 Z " fill="#0D0D0D" transform="translate(269,432)"/>
<path d="M0 0 C5.78886224 1.36827653 11.38145918 3.04911777 17 5 C16.01 5.33 15.02 5.66 14 6 C14 6.99 14 7.98 14 9 C8.60308488 7.50723624 3.30094216 5.80304155 -2 4 C-1.34 2.68 -0.68 1.36 0 0 Z " fill="#3A3A3A" transform="translate(183,420)"/>
<path d="M0 0 C0.33 0.66 0.66 1.32 1 2 C1.66 2 2.32 2 3 2 C4.5056904 7.80766296 5.21824777 12.9981863 5 19 C3.078125 18.26171875 3.078125 18.26171875 1 17 C-1.13423876 12.0570225 -1.3319236 6.31077765 -1 1 C-0.67 0.67 -0.34 0.34 0 0 Z " fill="#252525" transform="translate(428,200)"/>
<path d="M0 0 C0 1.32 0 2.64 0 4 C-0.66 4 -1.32 4 -2 4 C-2.33 4.99 -2.66 5.98 -3 7 C-3.66 7 -4.32 7 -5 7 C-5 7.66 -5 8.32 -5 9 C-6.98 9.99 -6.98 9.99 -9 11 C-9 10.34 -9 9.68 -9 9 C-9.66 9 -10.32 9 -11 9 C-10.67 7.68 -10.34 6.36 -10 5 C-9.34 5 -8.68 5 -8 5 C-7.87625 4.360625 -7.7525 3.72125 -7.625 3.0625 C-7.41875 2.381875 -7.2125 1.70125 -7 1 C-4.53721199 -0.231394 -2.7204945 -0.07159196 0 0 Z " fill="#242424" transform="translate(382,379)"/>
<path d="M0 0 C4.97209562 1.76429199 9.43438061 4.3939166 14 7 C13.01 7.33 12.02 7.66 11 8 C11.33 8.99 11.66 9.98 12 11 C9.99105606 10.36079057 7.99220557 9.68960962 6 9 C5.2575 8.773125 4.515 8.54625 3.75 8.3125 C0.9256497 6.19423727 0.73842136 3.32289614 0 0 Z " fill="#3F3F3F" transform="translate(335,84)"/>
<path d="M0 0 C0.66 0.33 1.32 0.66 2 1 C1.39301257 5.12751449 -0.03810791 8.3321148 -2 12 C-2.66 11.34 -3.32 10.68 -4 10 C-5.65 11.65 -7.3 13.3 -9 15 C-8.37240135 12.07120629 -7.41377341 9.63904371 -6 7 C-5.34 7 -4.68 7 -4 7 C-4 5.68 -4 4.36 -4 3 C-3.34 3 -2.68 3 -2 3 C-2 2.34 -2 1.68 -2 1 C-1.34 0.67 -0.68 0.34 0 0 Z " fill="#373737" transform="translate(414,332)"/>
<path d="M0 0 C0.69029297 0.12052734 1.38058594 0.24105469 2.09179688 0.36523438 C3.14463867 0.52862305 3.14463867 0.52862305 4.21875 0.6953125 C5.94967628 0.9661377 7.67737007 1.25747875 9.40429688 1.55273438 C9.07429688 2.54273437 8.74429687 3.53273438 8.40429688 4.55273438 C2.30648687 4.77358061 -2.81213248 4.56441112 -8.59570312 2.55273438 C-6.24995005 -1.01532682 -3.97041925 -0.59460385 0 0 Z " fill="#171717" transform="translate(272.595703125,64.447265625)"/>
<path d="M0 0 C0.33 1.32 0.66 2.64 1 4 C0.01 4.33 -0.98 4.66 -2 5 C-2.33 5.66 -2.66 6.32 -3 7 C-4.32467746 7.6837045 -5.65863633 8.34964186 -7 9 C-7.66 9.66 -8.32 10.32 -9 11 C-9.66 10.01 -10.32 9.02 -11 8 C-4.56521739 0 -4.56521739 0 0 0 Z " fill="#222222" transform="translate(157,89)"/>
<path d="M0 0 C0.33 1.65 0.66 3.3 1 5 C-2.96 6.98 -2.96 6.98 -7 9 C-7.33 8.34 -7.66 7.68 -8 7 C-8.99 7 -9.98 7 -11 7 C-11 6.34 -11 5.68 -11 5 C-10.01 5 -9.02 5 -8 5 C-8 4.34 -8 3.68 -8 3 C-2.25 0 -2.25 0 0 0 Z " fill="#353535" transform="translate(362,395)"/>
<path d="M0 0 C2.64 0.99 5.28 1.98 8 3 C4.31265242 5.45823172 1.30300029 6.01242616 -3 7 C-3 7.66 -3 8.32 -3 9 C-3.99 8.67 -4.98 8.34 -6 8 C-5.34 7.67 -4.68 7.34 -4 7 C-4.33 5.68 -4.66 4.36 -5 3 C-3.35 2.67 -1.7 2.34 0 2 C0 1.34 0 0.68 0 0 Z " fill="#383838" transform="translate(186,73)"/>
<path d="M0 0 C0.65234375 1.734375 0.65234375 1.734375 1 4 C0.00390625 6.140625 0.00390625 6.140625 -1.4375 8.25 C-1.91058594 8.95640625 -2.38367188 9.6628125 -2.87109375 10.390625 C-3.24363281 10.92171875 -3.61617188 11.4528125 -4 12 C-4.33 11.34 -4.66 10.68 -5 10 C-6.98 10.99 -6.98 10.99 -9 12 C-8.1875 9.5625 -8.1875 9.5625 -7 7 C-6.01 6.67 -5.02 6.34 -4 6 C-2.90833725 4.06669397 -2.90833725 4.06669397 -2 2 C-1.34 1.34 -0.68 0.68 0 0 Z " fill="#212121" transform="translate(410,341)"/>
<path d="M0 0 C4.21912747 0.4794463 6.79663178 1.16625119 10 4 C9.67 5.32 9.34 6.64 9 8 C2.35384615 5.66153846 2.35384615 5.66153846 0.5625 2.3125 C0.376875 1.549375 0.19125 0.78625 0 0 Z " fill="#202020" transform="translate(346,92)"/>
<path d="M0 0 C2.48108493 4.031763 2.45250387 7.67283722 1.5625 12.25 C1 14 1 14 0 16 C-1.65076188 11.82454348 -2.22083461 9.32841363 -1 5 C-0.814375 4.071875 -0.62875 3.14375 -0.4375 2.1875 C-0.293125 1.465625 -0.14875 0.74375 0 0 Z " fill="#363636" transform="translate(71,288)"/>
<path d="M0 0 C0.33 0.66 0.66 1.32 1 2 C1.66 2 2.32 2 3 2 C3 4.64 3 7.28 3 10 C2.01 10 1.02 10 0 10 C-1.49106457 7.01787087 -1.11941467 4.28390342 -1 1 C-0.67 0.67 -0.34 0.34 0 0 Z " fill="#1C1C1C" transform="translate(428,200)"/>
<path d="M0 0 C2.62187494 1.04874998 3.79371361 1.64931313 5.25 4.125 C5.4975 4.74375 5.745 5.3625 6 6 C5.34 6 4.68 6 4 6 C3.67 6.99 3.34 7.98 3 9 C0.52121318 6.8445332 -0.57563804 5.28880515 -1 2 C-0.67 1.34 -0.34 0.68 0 0 Z " fill="#393939" transform="translate(375,112)"/>
<path d="M0 0 C3.63 0.33 7.26 0.66 11 1 C9.02 1.99 9.02 1.99 7 3 C6.67 3.33 6.34 3.66 6 4 C4.33382885 4.04063832 2.66611905 4.042721 1 4 C0.67 2.68 0.34 1.36 0 0 Z " fill="#292929" transform="translate(197,426)"/>
<path d="M0 0 C4.75 0.75 4.75 0.75 7 3 C6.01 4.32 5.02 5.64 4 7 C2.02 6.01 0.04 5.02 -2 4 C-1.34 2.68 -0.68 1.36 0 0 Z " fill="#3F3F3F" transform="translate(314,75)"/>
<path d="M0 0 C1.32 0.66 2.64 1.32 4 2 C3.67 3.98 3.34 5.96 3 8 C2.34 7.01 1.68 6.02 1 5 C0.34 6.98 -0.32 8.96 -1 11 C-1.66 10.67 -2.32 10.34 -3 10 C-2.01 6.7 -1.02 3.4 0 0 Z " fill="#565656" transform="translate(74,186)"/>
<path d="M0 0 C0.33 0 0.66 0 1 0 C0.67 3.3 0.34 6.6 0 10 C-2.14915785 6.77626323 -2.38286803 5.73296326 -2 2 C-1.34 1.34 -0.68 0.68 0 0 Z M-4 7 C-3.34 7 -2.68 7 -2 7 C-2.33 7.66 -2.66 8.32 -3 9 C-3.33 8.34 -3.66 7.68 -4 7 Z " fill="#181818" transform="translate(75,190)"/>
<path d="M0 0 C1.65 0 3.3 0 5 0 C5.33 1.65 5.66 3.3 6 5 C4.125 4.75 4.125 4.75 2 4 C0.75 1.9375 0.75 1.9375 0 0 Z " fill="#1F1F1F" transform="translate(395,138)"/>
<path d="M0 0 C-0.99 0.66 -1.98 1.32 -3 2 C-3.33 2.99 -3.66 3.98 -4 5 C-5.65 5.33 -7.3 5.66 -9 6 C-8.8125 3.625 -8.8125 3.625 -8 1 C-4.72494404 -0.89608503 -3.64512471 -1.21504157 0 0 Z " fill="#424242" transform="translate(308,424)"/>
<path d="M0 0 C0.33 0.66 0.66 1.32 1 2 C0.0625 4.625 0.0625 4.625 -1 7 C-2.32 6.34 -3.64 5.68 -5 5 C-5 3.68 -5 2.36 -5 1 C-3.35 0.67 -1.7 0.34 0 0 Z " fill="#2D2D2D" transform="translate(418,328)"/>
<path d="M0 0 C0.66 0.33 1.32 0.66 2 1 C2.125 3.875 2.125 3.875 2 7 C1.34 7.66 0.68 8.32 0 9 C0 8.01 0 7.02 0 6 C-0.66 5.67 -1.32 5.34 -2 5 C-1.34 3.35 -0.68 1.7 0 0 Z " fill="#040404" transform="translate(66,225)"/>
<path d="M0 0 C0.66 0 1.32 0 2 0 C2.33 1.98 2.66 3.96 3 6 C2.34 5.67 1.68 5.34 1 5 C0.34 5.66 -0.32 6.32 -1 7 C-1.04254356 5.00045254 -1.04080783 2.99958364 -1 1 C-0.67 0.67 -0.34 0.34 0 0 Z " fill="#3B3B3B" transform="translate(427,196)"/>
<path d="M0 0 C0 0.66 0 1.32 0 2 C-2.64 2.33 -5.28 2.66 -8 3 C-8 2.34 -8 1.68 -8 1 C-5.07175348 0.02391783 -3.04386724 -0.08226668 0 0 Z " fill="#030303" transform="translate(235,65)"/>
<path d="M0 0 C0.66 0.33 1.32 0.66 2 1 C2 2.65 2 4.3 2 6 C1.01 6 0.02 6 -1 6 C-1.042721 4.33388095 -1.04063832 2.66617115 -1 1 C-0.67 0.67 -0.34 0.34 0 0 Z " fill="#151515" transform="translate(69,287)"/>
<path d="" fill="#000000" transform="translate(0,0)"/>
<path d="" fill="#808080" transform="translate(0,0)"/>
<path d="" fill="#FFFFFF" transform="translate(0,0)"/>
<path d="" fill="#999999" transform="translate(0,0)"/>
<path d="" fill="#000000" transform="translate(0,0)"/>
<path d="" fill="#000000" transform="translate(0,0)"/>
<path d="" fill="#000000" transform="translate(0,0)"/>
<path d="" fill="#000000" transform="translate(0,0)"/>
<path d="" fill="#000000" transform="translate(0,0)"/>
<path d="" fill="#000000" transform="translate(0,0)"/>
<path d="" fill="#999999" transform="translate(0,0)"/>
<path d="" fill="#808080" transform="translate(0,0)"/>
</svg>
